<svg id="Layer1" xmlns="http://www.w3.org/2000/svg" viewBox="0 0 39 31"><defs><style>.cls-1{fill:#ccc;}</style></defs><title>arrow</title><circle class="cls-1" cx="3.64" cy="15.33" r="1.56"/><circle class="cls-1" cx="8.8" cy="15.33" r="1.56"/><circle class="cls-1" cx="24.29" cy="15.33" r="1.56" transform="translate(-3.73 21.67) rotate(-45)"/><circle class="cls-1" cx="29.46" cy="15.33" r="1.56" transform="translate(-2.21 25.32) rotate(-45)"/><circle class="cls-1" cx="35.71" cy="15.36" r="1.56" transform="translate(-0.41 29.75) rotate(-45)"/><circle class="cls-1" cx="31.65" cy="11.3" r="1.56" transform="translate(1.28 25.69) rotate(-45)"/><circle class="cls-1" cx="27.65" cy="7.4" r="1.56" transform="translate(2.87 21.71) rotate(-45)"/><circle class="cls-1" cx="23.83" cy="3.49" r="1.56" transform="translate(4.51 17.87) rotate(-45)"/><circle class="cls-1" cx="31.65" cy="19.36" r="1.56" transform="translate(-4.42 28.05) rotate(-45)"/><circle class="cls-1" cx="27.65" cy="23.27" r="1.56" transform="translate(-8.36 26.36) rotate(-45)"/><circle class="cls-1" cx="23.83" cy="27.18" r="1.56" transform="translate(-12.24 24.81) rotate(-45)"/><circle class="cls-1" cx="13.97" cy="15.33" r="1.56" transform="translate(-6.75 14.37) rotate(-45)"/><circle class="cls-1" cx="19.13" cy="15.33" r="1.56" transform="translate(-5.24 18.02) rotate(-45)"/></svg>