<?xml version="1.0" encoding="utf-8"?>
<!-- Generator: Adobe Illustrator 19.2.1, SVG Export Plug-In . SVG Version: 6.00 Build 0)  -->
<svg version="1.1" xmlns="http://www.w3.org/2000/svg" xmlns:xlink="http://www.w3.org/1999/xlink" x="0px" y="0px"
	 viewBox="0 0 152.7 36.7" style="enable-background:new 0 0 152.7 36.7;" xml:space="preserve">
<style type="text/css">
	.st0{fill:#7C7C7C;}
	.st1{fill:#999999;}
	.st2{clip-path:url(#SVGID_2_);fill:none;stroke:#FFFFFF;}
	.st3{clip-path:url(#SVGID_4_);}
	.st4{clip-path:url(#SVGID_6_);}
	.st5{fill:#D3E0E2;}
	.st6{fill:#FF6D50;}
	.st7{opacity:0.1;clip-path:url(#SVGID_8_);}
	.st8{clip-path:url(#SVGID_10_);}
	.st9{fill:none;}
	.st10{fill:#425157;}
	.st11{fill:#FFFFFF;}
	.st12{fill:#231F20;}
	.st13{opacity:0.5;}
	.st14{fill:none;stroke:#425157;stroke-miterlimit:10;}
	.st15{clip-path:url(#SVGID_14_);}
	.st16{clip-path:url(#SVGID_16_);}
	.st17{fill:#1A1A1A;}
	.st18{fill:#5B6C74;}
	.st19{fill:#CCCCCC;}
	.st20{fill:#D46728;}
	.st21{fill:#211F1F;}
	.st22{fill:#808080;}
	.st23{fill:#3DA1D1;}
	.st24{fill:none;stroke:#E6E6E6;stroke-width:3;stroke-miterlimit:10;}
	.st25{fill:#4D4D4D;}
	.st26{fill:#333333;}
	.st27{fill:#EF6843;}
	.st28{fill:#99A8AD;}
	.st29{fill:none;stroke:#FF775D;stroke-miterlimit:10;}
	.st30{fill:#607075;}
	.st31{fill:#FF775D;}
	.st32{clip-path:url(#SVGID_18_);}
	.st33{clip-path:url(#SVGID_20_);}
	.st34{clip-path:url(#SVGID_22_);}
	.st35{clip-path:url(#SVGID_24_);}
	.st36{fill:#F2F2F2;}
	.st37{fill:#9AA5A8;}
	.st38{fill:none;stroke:#FFFFFF;stroke-miterlimit:10;}
	.st39{fill:#B3B3B3;}
	.st40{fill:#5D5D5D;}
	.st41{fill:none;stroke:#F97838;stroke-width:3;stroke-miterlimit:10;}
	.st42{fill:#F97838;}
	.st43{fill:none;stroke:#FF6D50;stroke-width:3;stroke-miterlimit:10;}
	.st44{clip-path:url(#SVGID_26_);}
	.st45{fill:none;stroke:#B3B3B3;stroke-width:0.728;stroke-miterlimit:10;}
	.st46{fill:#EBF1F2;}
	.st47{fill:none;stroke:#000000;stroke-width:3;stroke-linecap:round;stroke-linejoin:round;stroke-miterlimit:10;}
	.st48{fill:#79CEE3;}
	.st49{fill:#3C4C54;}
	.st50{fill:#EF672F;}
	.st51{fill:none;stroke:#94AAB2;stroke-width:6;stroke-miterlimit:10;}
	.st52{fill:none;stroke:#D3E0E2;stroke-miterlimit:10;}
	.st53{fill:none;stroke:#CCCCCC;stroke-width:6;stroke-miterlimit:10;}
	.st54{fill:#E6E6E6;}
	.st55{fill:none;stroke:#EF6843;stroke-width:3;stroke-miterlimit:10;}
	.st56{fill:#425157;stroke:#425157;stroke-width:3;stroke-miterlimit:10;}
	.st57{fill:none;stroke:#FF7E27;stroke-width:3;stroke-miterlimit:10;}
	.st58{fill:#FF7E27;}
	.st59{fill:#E2CE39;}
	.st60{clip-path:url(#SVGID_28_);}
	.st61{clip-path:url(#SVGID_30_);}
	.st62{opacity:0.38;}
	.st63{clip-path:url(#SVGID_32_);}
	.st64{clip-path:url(#SVGID_34_);}
	.st65{clip-path:url(#SVGID_36_);}
	.st66{clip-path:url(#SVGID_38_);}
	.st67{clip-path:url(#SVGID_40_);}
	.st68{clip-path:url(#SVGID_42_);}
	.st69{fill:#97A8AF;}
	.st70{clip-path:url(#SVGID_44_);}
	.st71{opacity:0.4;}
	.st72{clip-path:url(#SVGID_50_);}
	.st73{fill:#F9F9F9;}
	.st74{fill:none;stroke:#B3B3B3;stroke-miterlimit:10;}
	.st75{fill:none;stroke:#4D4D4D;stroke-width:1.709;stroke-linecap:round;stroke-miterlimit:10;}
	.st76{fill:none;stroke:#FF6D50;stroke-width:2;stroke-miterlimit:10;}
	.st77{clip-path:url(#SVGID_52_);}
	.st78{clip-path:url(#SVGID_54_);}
	.st79{clip-path:url(#SVGID_56_);}
	.st80{clip-path:url(#SVGID_58_);}
	.st81{clip-path:url(#SVGID_60_);}
	.st82{clip-path:url(#SVGID_62_);}
	.st83{fill:#2F4449;}
	.st84{opacity:0.15;clip-path:url(#SVGID_64_);}
	.st85{opacity:0.2;clip-path:url(#SVGID_64_);}
	.st86{clip-path:url(#SVGID_66_);}
	.st87{fill:none;stroke:#FFFFFF;stroke-width:1.1674;stroke-miterlimit:10;}
	.st88{fill:none;stroke:#EF6843;stroke-width:3.0525;stroke-miterlimit:10;}
	.st89{clip-path:url(#SVGID_68_);}
	.st90{clip-path:url(#SVGID_70_);}
	.st91{opacity:0.1;fill:#E73E30;}
	.st92{opacity:0.1;fill:#F39D97;}
	.st93{opacity:0.15;fill:#E73E30;}
	.st94{fill:#EC008C;}
	.st95{fill:none;stroke:#EC008C;stroke-width:5;stroke-miterlimit:10;}
	.st96{fill:none;stroke:#EC008C;stroke-width:3.6398;stroke-miterlimit:10;}
	.st97{fill:none;stroke:#EC008C;stroke-width:3.6567;stroke-miterlimit:10;}
	.st98{fill:#929DA0;}
	.st99{fill:#1384C7;}
	.st100{fill:#FF6A57;}
	.st101{fill:#787F7F;}
	.st102{clip-path:url(#SVGID_72_);}
	.st103{opacity:0.85;}
	.st104{fill:#050505;}
	.st105{fill:url(#SVGID_73_);}
	.st106{fill:url(#SVGID_74_);}
	.st107{fill:url(#SVGID_75_);}
	.st108{fill:url(#SVGID_76_);}
	.st109{fill:url(#SVGID_77_);}
	.st110{fill:url(#SVGID_78_);}
	.st111{fill:url(#SVGID_79_);}
	.st112{fill:url(#SVGID_80_);}
	.st113{fill:url(#SVGID_81_);}
	.st114{fill:url(#SVGID_82_);}
	.st115{fill:url(#SVGID_83_);}
	.st116{fill:url(#SVGID_84_);}
	.st117{fill:url(#SVGID_85_);}
	.st118{fill:url(#SVGID_86_);}
	.st119{fill:url(#SVGID_87_);}
	.st120{fill:url(#SVGID_88_);}
	.st121{fill:url(#SVGID_89_);}
	.st122{fill:url(#SVGID_90_);}
	.st123{fill:url(#SVGID_91_);}
	.st124{fill:url(#SVGID_92_);}
	.st125{fill:url(#SVGID_93_);}
	.st126{fill:url(#SVGID_94_);}
	.st127{fill:url(#SVGID_95_);}
	.st128{fill:url(#SVGID_96_);}
	.st129{fill:url(#SVGID_97_);}
	.st130{fill:#58595B;}
	.st131{fill-rule:evenodd;clip-rule:evenodd;fill:#231F20;}
	.st132{fill:#808285;}
	.st133{fill:url(#SVGID_98_);}
	.st134{fill:url(#SVGID_99_);}
	.st135{fill:url(#SVGID_100_);}
	.st136{fill:url(#SVGID_101_);}
	.st137{fill:url(#SVGID_102_);}
	.st138{fill:url(#SVGID_103_);}
	.st139{fill:url(#SVGID_104_);}
	.st140{fill:url(#SVGID_105_);}
	.st141{fill:url(#SVGID_106_);}
	.st142{fill:url(#SVGID_107_);}
	.st143{fill:url(#SVGID_108_);}
	.st144{fill:url(#SVGID_109_);}
	.st145{fill:url(#SVGID_110_);}
	.st146{fill:url(#SVGID_111_);}
	.st147{fill:url(#SVGID_112_);}
	.st148{fill:url(#SVGID_113_);}
	.st149{fill:url(#SVGID_114_);}
	.st150{fill:url(#SVGID_115_);}
	.st151{fill:url(#SVGID_116_);}
	.st152{fill:url(#SVGID_117_);}
	.st153{fill:url(#SVGID_118_);}
	.st154{fill:url(#SVGID_119_);}
	.st155{fill:url(#SVGID_120_);}
	.st156{fill:url(#SVGID_121_);}
	.st157{fill:url(#SVGID_122_);}
	.st158{fill:none;stroke:#E8563D;stroke-width:2;stroke-miterlimit:10;}
	.st159{fill:#E8563D;}
	.st160{clip-path:url(#SVGID_124_);}
</style>
<symbol  id="Search" viewBox="-7.1 -6.9 14.1 13.7">
	<path class="st0" d="M7-5.7l-4,4c0.6,0.9,0.9,1.9,0.9,3c0,3-2.5,5.5-5.5,5.5c-3,0-5.5-2.5-5.5-5.5c0-3,2.5-5.5,5.5-5.5
		c1.3,0,2.5,0.5,3.4,1.2l4-4L7-5.7z M-6,1.4c0,2.5,2,4.5,4.5,4.5c2.5,0,4.5-2,4.5-4.5c0-2.5-2-4.5-4.5-4.5C-4-3.1-6-1.1-6,1.4z"/>
</symbol>
<symbol  id="img_7_" viewBox="-129.7 -89.6 259.4 180">
	<rect x="-129.4" y="-89.2" class="st1" width="258.8" height="179.2"/>
	<g>
		<defs>
			<rect id="SVGID_1_" x="-129.4" y="-89.2" width="258.8" height="179.2"/>
		</defs>
		<clipPath id="SVGID_2_">
			<use xlink:href="#SVGID_1_"  style="overflow:visible;"/>
		</clipPath>
		<line class="st2" x1="-129.4" y1="90" x2="129.4" y2="-89.2"/>
		<line class="st2" x1="129.4" y1="90" x2="-129.4" y2="-89.2"/>
	</g>
</symbol>
<g id="bg">
</g>
<g id="Layer1">
	<g id="img_5_">
	</g>
	<g id="input">
	</g>
	<g id="go">
		<g id="go_1_">
		</g>
	</g>
	<g id="img_2_">
	</g>
	<g id="img">
	</g>
	<g id="img_3_">
	</g>
	<g id="img_1_">
	</g>
	<g id="button_default">
	</g>
	<g id="img_4_">
	</g>
	<g id="greek_text_1_">
	</g>
	<g id="greek_text">
	</g>
	<g id="go_2">
		<g id="go_4_">
		</g>
	</g>
	<g id="go_2_1_">
		<g id="go_5_">
		</g>
	</g>
	<g id="img_6_">
	</g>
	<g id="See_All">
	</g>
	<g id="go_2_2_">
		<g id="go_6_">
		</g>
	</g>
	<g id="See_All_1_">
	</g>
	<g id="FOOTER">
	</g>
	<g id="footer">
	</g>
	<g id="New_Symbol_1">
		<g id="footer_9_">
		</g>
	</g>
	<g id="New_Symbol">
	</g>
</g>
<g id="Layer_29">
</g>
<g id="Pop">
</g>
<g id="notes">
</g>
<g id="Grid">
</g>
<g id="design_notes">
	<rect x="-105.2" y="-1058.3" class="st97" width="2028.9" height="2768"/>
</g>
<g id="Layer_31">
</g>
<g id="Layer_32">
</g>
<g id="Layer_33">
	<g>
		<path class="st12" d="M72.6,15.4c-0.3,1.2-0.7,1.4-1.5,1.5l-0.7,0.7l0.1,0.2c0.7,0,1.4-0.1,2.1-0.1c0.7,0,1.4,0.1,2.1,0.1l0.7-0.7
			l-0.1-0.2c-1.6,0-1.8-0.2-1.6-1.5c0.1-0.3,0.1-0.6,0.2-0.9L76,5.7h0l1.6,10.4c0.1,0.6,0.1,1.2,0.1,1.7c0.4-0.1,0.8-0.1,1.3-0.1
			c0.4,0,0.8,0,1.2,0.1c0.2-0.4,0.4-0.9,0.6-1.3l5.4-10.8h0l-1.1,8.2c-0.1,0.4-0.1,1-0.2,1.3c-0.2,1.4-0.5,1.7-1.5,1.7l-0.7,0.7
			l0.1,0.2c1.1,0,2.3-0.1,3.5-0.1c0.9,0,1.9,0,2.8,0.1l0.7-0.7l-0.1-0.2c-1.2,0-1.4-0.2-1.2-1.7l1-8.3c0-0.2,0-0.4,0.1-0.6
			c0.2-0.9,0.5-1.1,1.5-1.1l0.7-0.7l-0.1-0.2c-1,0-2,0.1-3.1,0.1c-0.9,0-1.8-0.1-2.7-0.1l-5.3,10.7h0L79.5,4.2
			c-0.8,0.1-1.7,0.1-2.5,0.1c-0.9,0-1.8-0.1-2.7-0.1l-0.7,0.7l0.1,0.2c1,0,1.5,0.1,1.4,0.8c0,0.1-0.1,0.4-0.1,0.5L72.6,15.4z"/>
		<path class="st12" d="M93.4,12.1c0.2-0.9,0.8-2.9,2.2-2.9c1.4,0,1.2,1.6,1,2.8L93.4,12.1z M99,14.9l-0.2-0.2
			c-0.5,0.5-1.8,1.8-3.4,1.8c-2.3,0-2.2-2.7-2.1-3.7h6.1c0.1-0.3,0.3-0.7,0.3-1c0.3-1.8-1-3.4-3.8-3.4c-3.6,0-5.3,3.1-5.7,5
			c-0.4,2.2,0.4,4.6,3.6,4.6c2.3,0,4-1.3,4.5-1.8L99,14.9z"/>
		<path class="st12" d="M100.2,15.4c-0.2,1.3-0.5,1.5-1.3,1.5l-0.7,0.6l0.1,0.2c1,0,2.1-0.1,3.1-0.1c0.8,0,1.5,0.1,2.3,0.1l0.7-0.6
			l-0.1-0.2c-0.9,0-1.1-0.1-0.8-1.5l0.5-2.9c0.3-1.6,1-2.7,2.4-2.7c1.2,0,1.2,0.9,1,2l-0.7,3.6c-0.2,1.3-0.4,1.5-1.1,1.5l-0.7,0.6
			l0.1,0.2c1,0,1.9-0.1,2.9-0.1c0.8,0,1.5,0.1,2.3,0.1l0.7-0.6l-0.1-0.2c-0.9,0-1.1-0.1-0.8-1.5l0.5-2.9c0.3-1.7,1.1-2.7,2.4-2.7
			c1,0,1.2,0.8,1,2l-0.7,3.6c-0.2,1.3-0.4,1.5-1.1,1.5l-0.7,0.6l0.1,0.2c1,0,1.9-0.1,2.9-0.1c0.9,0,1.7,0.1,2.6,0.1l0.7-0.6
			l-0.1-0.2c-1.3,0-1.4-0.1-1.2-1.5l0.6-3.4c0.3-1.6,0-3.6-2.7-3.6c-2,0-3.3,1.4-3.9,1.9c-0.2-0.5-0.6-1.9-2.8-1.9
			c-1.3,0-2.4,0.6-3.8,2l0,0l0.5-2L100.4,9l-0.7,0.6l0.1,0.2c1.2,0,1.4,0.2,1.2,1.3L100.2,15.4z"/>
		<path class="st12" d="M122.4,13c0.4-2.2,1.4-3.4,2.5-3.4c1.6,0,1.5,2.1,1.2,3.9c-0.5,2.4-1.4,3.7-2.6,3.7
			C122.3,17.2,121.9,15.7,122.4,13 M118.7,15.5c-0.2,0.9-0.3,1.5-0.5,2.2c0.5-0.1,1-0.2,1.5-0.2c2.3,0,3,0.5,4.8,0.5
			c2.4,0,4.6-1.8,5.2-4.9c0.6-3-1.1-4.7-3.3-4.7c-1.7,0-2.7,0.9-3.5,1.6l1.4-6.5l-4.5,0.6l-0.7,0.6l0.1,0.2c1.2,0,1.4,0.2,1.2,1.3
			L118.7,15.5z"/>
		<path class="st12" d="M133.6,12.1c0.2-0.9,0.8-2.9,2.2-2.9c1.4,0,1.2,1.6,1,2.8L133.6,12.1z M139.1,14.9l-0.2-0.2
			c-0.5,0.5-1.8,1.8-3.3,1.8c-2.3,0-2.2-2.7-2.1-3.7h6.1c0.1-0.3,0.3-0.7,0.4-1c0.3-1.8-1-3.4-3.8-3.4c-3.6,0-5.3,3.1-5.7,5
			c-0.4,2.2,0.4,4.6,3.6,4.6c2.3,0,4-1.3,4.5-1.8L139.1,14.9z"/>
		<path class="st12" d="M140.3,15.5c-0.2,1.3-0.5,1.6-1.3,1.6l-0.7,0.6l0.1,0.2c1,0,2.1-0.1,3.1-0.1c0.9,0,1.7,0.1,2.6,0.1l0.7-0.6
			l-0.1-0.2c-1.3,0-1.4-0.1-1.2-1.6l0.2-1.2c0.3-1.4,1-3.8,1.8-3.8c0.5,0,0.8,0.4,1.3,1l1.6-2.1l-0.1-0.4c-0.5-0.3-1-0.5-1.4-0.5
			c-1,0-1.9,1.4-2.9,2.6l0,0l0.8-2.6l-4.4,0.6l-0.7,0.6l0.1,0.2c1.2,0,1.4,0.2,1.2,1.3L140.3,15.5z"/>
		<path class="st12" d="M77.5,26.5h1.3c2.8,0,3.5,1.3,3.2,2.8c-0.4,2-2,2.9-4.1,2.9c-1.5,0-1.6-0.5-1.3-1.5L77.5,26.5z M78.8,20.5
			H80c1.8,0,3,0.4,2.6,2.3c-0.6,2.8-2.9,2.8-4.9,2.8L78.8,20.5z M73,30.8c-0.3,1.3-0.6,1.5-1.6,1.5L70.7,33l0.1,0.2
			c1.2-0.1,2.3-0.1,3.5-0.1c1.6,0,3.3,0.1,4.9,0.1c3.5,0,5.7-1.5,6.2-3.7c0.6-2.7-1.9-3.3-3.7-3.5v0c1.7-0.3,3.8-0.9,4.3-3.2
			c0.5-2.3-1.4-3.1-3.6-3.1c-1.2,0-3.6,0.1-5.2,0.1c-1.2,0-2-0.1-3-0.1l-0.7,0.7l0.1,0.2c1.5,0,1.7,0.1,1.4,1.5L73,30.8z"/>
		<path class="st12" d="M89.1,27.6c0.3-0.9,0.9-2.9,2.3-2.9c1.4,0,1.1,1.6,0.9,2.8L89.1,27.6z M94.6,30.3l-0.2-0.2
			c-0.5,0.5-1.9,1.8-3.4,1.8c-2.3,0-2.1-2.7-2-3.7h6.1c0.1-0.3,0.3-0.7,0.4-1c0.4-1.8-0.9-3.4-3.7-3.4c-3.6,0-5.4,3.1-5.8,5
			c-0.5,2.2,0.3,4.6,3.5,4.6c2.3,0,4-1.3,4.5-1.8L94.6,30.3z"/>
		<path class="st12" d="M95.9,30.8c-0.3,1.3-0.5,1.6-1.3,1.6L93.8,33l0.1,0.2c1,0,2.1-0.1,3.1-0.1c0.8,0,1.6,0.1,2.4,0.1l0.7-0.6
			l-0.1-0.2c-1.1,0-1.2-0.1-0.9-1.6l0.5-2.1c0.4-1.7,0.9-3.5,2.7-3.5c1.3,0,1.3,1,1,2.1l-0.8,3.5c-0.3,1.3-0.5,1.6-1.1,1.6l-0.7,0.6
			l0.1,0.2c1,0,1.9-0.1,2.9-0.1c0.9,0,1.7,0.1,2.6,0.1l0.7-0.6l-0.1-0.2c-1.3,0-1.4-0.1-1.1-1.6l0.7-3.2c0.4-1.8,0-3.7-2.8-3.7
			c-1.8,0-3.2,1.3-3.8,1.9l0,0l0.6-1.8l-4.2,0.6l-0.7,0.6l0.1,0.2c1.2,0,1.4,0.2,1.2,1.3L95.9,30.8z"/>
		<path class="st12" d="M110.6,27.6c0.3-0.9,0.9-2.9,2.3-2.9c1.4,0,1.1,1.6,1,2.8L110.6,27.6z M116,30.3l-0.2-0.2
			c-0.5,0.5-1.9,1.8-3.4,1.8c-2.3,0-2.1-2.7-2-3.7h6.1c0.1-0.3,0.3-0.7,0.4-1c0.4-1.8-0.9-3.4-3.7-3.4c-3.6,0-5.4,3.1-5.8,5
			c-0.5,2.2,0.3,4.6,3.5,4.6c2.3,0,4-1.3,4.5-1.8L116,30.3z"/>
		<path class="st12" d="M117.2,30.8c-0.3,1.3-0.5,1.6-1.3,1.6l-0.7,0.6l0.1,0.2c1,0,2.1-0.1,3.1-0.1c0.9,0,1.9,0.1,2.8,0.1l0.7-0.6
			l-0.1-0.2c-1.4,0-1.6-0.1-1.3-1.6l1.3-5.8l1.8,0.1l0.8-0.7l-0.1-0.2l-2.3,0.1c0.1-1.1,0.2-2.6,0.3-3.3c0.2-0.8,0.6-1,0.8-1
			c0.5,0,0.9,1.1,1.3,1.9l1.6-2.1l0-0.5c-0.5-0.3-1.1-0.5-1.7-0.5c-1.7,0-4.9,2-5.3,4.3l-0.2,1.2l-1-0.1l-0.8,0.7l0.1,0.2l1.5-0.1
			L117.2,30.8z"/>
		<path class="st12" d="M127.9,22.7c1,0,2-0.8,2.2-1.8c0.2-1-0.4-1.8-1.4-1.8c-1,0-2,0.8-2.2,1.8C126.3,21.9,127,22.7,127.9,22.7
			 M124.7,30.8c-0.3,1.3-0.5,1.6-1.3,1.6l-0.7,0.6l0.1,0.2c1,0,2.1-0.1,3.1-0.1c0.9,0,1.7,0.1,2.6,0.1l0.7-0.6l-0.1-0.2
			c-1.3,0-1.4-0.1-1.1-1.6l1.5-7l-4.4,0.6l-0.7,0.6l0.1,0.2c1.2,0,1.4,0.2,1.2,1.3L124.7,30.8z"/>
		<path class="st12" d="M135,32.4l-0.1-0.3c-0.3,0-0.5,0.1-0.8,0.1c-1.1,0-1.1-0.5-0.6-2.6l1.1-4.6l1.8,0.1l0.7-0.7l-0.1-0.2
			l-2.3,0.1l0.8-3.4l-0.2-0.2l-3.4,1.3l-0.5,2.2l-1.1-0.1l-0.7,0.7l0.1,0.2l1.6-0.1l-1.2,5.7c-0.4,1.7-0.5,2.7,2.5,2.7
			c0.5,0,1-0.1,1.5-0.2L135,32.4z"/>
		<path class="st12" d="M143.1,26.7l0.8-0.5c0-0.5,0.1-1.1,0.3-1.7c-0.8-0.4-1.7-0.7-2.7-0.7c-2.8,0-4.3,1.5-4.6,2.9
			c-0.7,3.3,4.2,2.3,3.8,4.5c-0.2,0.8-0.9,1.4-1.8,1.4c-1.5,0-1.8-1.7-1.8-2.6l-0.2-0.1l-1.1,0.7c-0.2,0.7-0.3,1.4-0.5,1.8
			c0.6,0.4,1.8,1,3.6,1c2.5,0,4.4-1.5,4.8-3.3c0.7-3.1-4.6-2.5-4.2-4.2c0.2-0.8,0.8-1.3,1.5-1.3c1.3,0,1.7,1,1.8,1.9L143.1,26.7z"/>
		<path class="st12" d="M36.3,5.2c3.9,2.6,5.9,6.8,6.5,11.1c-3.6,2-9.1,1.8-12.9,0.2C30.4,12.2,32.5,8.2,36.3,5.2 M46.2,19.7
			c0.4-4.2-0.3-8.5-2.4-11.9C41.3,3.1,35,2.6,31,5.2c-4.7,3.4-6.2,9-6,14.5c0,5.4,2.2,10.9,7.5,13.3c3.4,1.1,7.6,0.9,10.6-1l2-5.8
			h-0.4c-0.7,1.1-1.6,2-2.8,2.6c-3,1.1-7.2,1.1-9.5-1c-2-2-2.6-5.6-2.4-8.2L46.2,19.7z"/>
		<path class="st12" d="M15.9,3.6c-2.6-0.2-5.1,1.6-6,3.9c0-1.1,0.1-2,0-3.1C7.7,6,5.2,7.4,3,8.9c0.1,0.1,0.1-0.1,0.2,0
			C4.1,9,5,9.9,5.1,10.6l0.1,11.4C5,25.4,5.7,29.2,4.1,32c-0.4,0.6-1.5,0.7-1.5,1.2l9.5-0.1V33c-1.5-0.2-2-1.7-2.2-2.8V13.5
			c0.4-2,1.1-3.8,2.7-5.2c1-0.6,2.5-0.6,3.6-0.2c1.1,0.4,1.8,1.6,2.2,2.7v17.7c0.1,1.5-0.2,2.8-1.2,3.9c-0.2,0.5-1.1,0.2-1,0.9h9.3
			L25.3,33c-1.4-0.4-2-1.8-2.2-3.2l-0.1-19c0-2-0.6-3.7-1.8-5.2C19.7,4.2,17.9,3.7,15.9,3.6"/>
		<path class="st12" d="M34.2,14.5c-0.2,0-0.2,1.3,0.2,2c0.4,0.2,0.6,0.1,1-0.1c0-0.6,0.2-1.7-0.4-2L34.2,14.5z"/>
		<path class="st12" d="M35.3,11.5c0.5-0.2-0.2-1.7,1.5-0.8c0,0,0.5,0,0.5,1.3l1.2,0.4c0-1.1,0.1-1.5,1.6-1.8
			c0.1-0.1,0.2-0.7-0.1-0.9c-2.5,0.7-4.4-1.8-6.9-0.2c-0.2,0.2-0.1,0.7,0.1,0.9c1.2-0.3,0.9,0.5,1,1L35.3,11.5z"/>
		<path class="st12" d="M32,11.3c0,0,1.3,1.1,1.3,1.6c0,0.5-1.4,1.3-1.4,1.3s4.6,0,8.5-0.9C36.6,11.9,32,11.3,32,11.3"/>
		<path class="st12" d="M37.5,14.2c0,0.7,0.1,1.3,0.5,2c0.2,0.2,0.7,0.1,1-0.1C38.9,15,38.9,13.2,37.5,14.2"/>
		<path class="st12" d="M59,28.4c-1.4,1-3.4,1.1-5,0.7c-1.3-0.5-2.3-1.7-2.6-2.9c-0.4-2.8,0.9-5.4,3.2-7c1.3-1,3-1.4,4.4-2.6
			C59,20.3,59,24.6,59,28.4 M65.3,29.2c-0.6-0.1-1.4-0.6-1.5-1.2l-0.1-17.3c0.1-2.1-0.4-3.9-1.8-5.3c-3.3-2.6-8.5-1.7-11.9-0.1
			c-0.5,1.7-1.2,3.4-1.6,5.2c2-2.1,5-3,8-2.7c1,0.4,2.1,1.1,2.6,2.2c0.2,1.2,0.6,2.7-0.8,3.7c-4.2,2.2-10.7,3.3-11.2,9.3
			c-0.6,3.2-0.2,6.8,2.2,9c2.2,1.8,5.9,2.2,8.5,1c0.4-1.1,0.7-2.5,1.5-3.4c0.4,2,2.5,3.6,4.3,3.9c3.3,1.4,2.3-3.1,3.8-4.5
			C66.2,29,66,29.4,65.3,29.2"/>
	</g>
</g>
</svg>
