<svg id="Layer_1" data-name="Layer 1" xmlns="http://www.w3.org/2000/svg" viewBox="0 0 288.8 73.65"><defs><style>.cls-1{fill:#2f4449;}</style></defs><title>sc-logo-just-gray</title><g id="Layer1"><path class="cls-1" d="M26.52,29.81c0,3.94-3.18,8-10.82,8C11,37.8,6.85,36,5,33.65l3.23-3.19C9.38,32,12.72,33.7,15.8,33.7c3.69,0,6.2-1.56,6.2-3.7,0-5.4-15.91-1.91-15.91-12.12,0-4,3.84-7.74,10.27-7.74,3.79,0,7.48,1.32,9.25,3.39l-2.93,5.31-1.16-.35A2.24,2.24,0,0,1,20,16.31l0.15-1.41a13.25,13.25,0,0,0-3.84-.61c-3.08,0-5.71,1.57-5.71,3.34C10.64,23.74,26.52,20.46,26.52,29.81Z" transform="translate(-5 -1.2)"/><path class="cls-1" d="M57.71,24a8.48,8.48,0,0,1-.1,1.72H35a9.54,9.54,0,0,0,9.5,8.14,13.68,13.68,0,0,0,9.1-3.59l2.58,3.34A17.36,17.36,0,0,1,44.51,37.8,14,14,0,0,1,30.31,24h0A13.92,13.92,0,0,1,44.45,10.3h0C52.3,10.3,57.71,16.46,57.71,24Zm-5-2.07C52,17.38,49,14.14,44.42,14.14A9.58,9.58,0,0,0,35.11,22Z" transform="translate(-5 -1.2)"/><path class="cls-1" d="M69.53,33.4l2.23,0.51A2.25,2.25,0,0,1,73.38,36v1.21H61.24V36a2.25,2.25,0,0,1,1.62-2.07l2.22-.51V14.69l-2.22-.51a2.24,2.24,0,0,1-1.62-2.07V10.9h8.09l0.2,2.48a10.09,10.09,0,0,1,9.71-2.78v4.35c-2-.51-9.71-1.47-9.71,5.91V33.4Z" transform="translate(-5 -1.2)"/><path class="cls-1" d="M108.41,24a8.49,8.49,0,0,1-.1,1.72H85.71a9.55,9.55,0,0,0,9.5,8.14,13.68,13.68,0,0,0,9.1-3.59l2.58,3.34A17.36,17.36,0,0,1,95.21,37.8,14,14,0,0,1,81,24h0A13.92,13.92,0,0,1,95.14,10.3h0C103,10.3,108.41,16.46,108.41,24Zm-5-2.07c-0.66-4.55-3.74-7.79-8.29-7.79A9.58,9.58,0,0,0,85.81,22Z" transform="translate(-5 -1.2)"/><path class="cls-1" d="M134.9,21.92c0-5-2.63-7.58-6.37-7.58-4.25,0-8.34,2.83-8.34,8.85V33.4l2.22,0.51A2.25,2.25,0,0,1,124,36v1.21H111.95V36a2.25,2.25,0,0,1,1.62-2.07l2.23-.51V14.69l-2.23-.51a2.24,2.24,0,0,1-1.62-2.07V10.9H120l0.2,3.89c1.06-2.07,3.44-4.75,8.9-4.75,7,0,10.21,4.85,10.21,11.43v9.45c0,2.43,3.19,2.43,3.19,2.43l-0.71,3.84h-1c-3.29,0-6-2.48-6-5.06Z" transform="translate(-5 -1.2)"/><path class="cls-1" d="M158.1,37.85c-7.08,0-12.79-6.17-12.79-13.75S151,10.3,158.1,10.3a12.06,12.06,0,0,1,9.71,4.85V5l-2.22-.5A2.25,2.25,0,0,1,164,2.41V1.2h8.34V30.77c0,2.53,3,2.58,3,2.58l-0.71,3.84h-0.76c-3.28,0-5.56-1.92-6-4.15A12,12,0,0,1,158.1,37.85ZM149.91,24.1c0,5.31,4,9.61,8.95,9.61s8.9-4.3,8.9-9.61-4-9.61-8.9-9.61S149.91,18.79,149.91,24.1Z" transform="translate(-5 -1.2)"/><path class="cls-1" d="M187.72,28.15L190,28.47a2.25,2.25,0,0,1,1.78,1.94l0.1,1.21-8.31.68L181.7,9.88l-2.26-.32a2.25,2.25,0,0,1-1.78-1.93l-0.1-1.21,12.14-1,0.1,1.21a2.25,2.25,0,0,1-1.44,2.2l-2.18.69Zm0.69,8-4.49.37L184.29,41l4.48-.37Z" transform="translate(-5 -1.2)"/><path class="cls-1" d="M204.07,40.46L205.45,41a2.25,2.25,0,0,1,1.61,2v1.21H196.19V43a2.25,2.25,0,0,1,1.62-2l1.76-.51V14.69l-1.76-.51a2.24,2.24,0,0,1-1.62-2.07V10.9h7.67l0.2,4.14a12,12,0,0,1,9.71-4.8c7.08,0,12.79,6.17,12.79,13.75s-5.71,13.8-12.79,13.8a12.06,12.06,0,0,1-9.71-4.85v7.52ZM222,24c0-5.31-4-9.6-8.95-9.6s-8.9,4.3-8.9,9.6,4,9.61,8.9,9.61S222,29.3,222,24Z" transform="translate(-5 -1.2)"/><path class="cls-1" d="M233.69,14.69l-2.22-.51a2.25,2.25,0,0,1-1.62-2.07V10.9h8.34V33.4l2.22,0.51A2.25,2.25,0,0,1,242,36v1.21H229.85V36a2.25,2.25,0,0,1,1.62-2.07l2.22-.51V14.69Zm0-8.39h4.5V1.8h-4.5V6.3Z" transform="translate(-5 -1.2)"/><path class="cls-1" d="M252.7,10.9h6.82v3.59H252.8V29c0,2.68,1.16,5,3.64,5A7.7,7.7,0,0,0,260,32.84l1.62,3.34a9.11,9.11,0,0,1-5.16,1.67c-5.16,0-8.09-3.49-8.09-8.8V14.49h-4V10.9h4l1.06-4.55a2.24,2.24,0,0,1,2.07-1.62h1.21V10.9Z" transform="translate(-5 -1.2)"/><path class="cls-1" d="M283.08,10.9H293.8v1.21a2.24,2.24,0,0,1-1.62,2.07l-1.57.36L281.66,33c-3.79,7.79-8.39,13.65-12.84,16.33l-2.53-3.89C271,42.4,273,40,276.56,33.3l-9-18.7-1.82-.41a2.24,2.24,0,0,1-1.62-2.07V10.9h10.72v1.21a2.24,2.24,0,0,1-1.62,2.07l-0.61.15L279,28.39l6.32-14.05-0.66-.15A2.24,2.24,0,0,1,283,12.12Z" transform="translate(-5 -1.2)"/><path class="cls-1" d="M73.08,68l2.38,3.44a17.41,17.41,0,0,1-10.67,3.34A13.75,13.75,0,1,1,74.85,51.63l-3,5.81-1.16-.35a2.27,2.27,0,0,1-1.47-2.17l0.3-2.38a9.25,9.25,0,0,0-4.7-1.32,9.84,9.84,0,0,0,0,19.67A14,14,0,0,0,73.08,68Z" transform="translate(-5 -1.2)"/><path class="cls-1" d="M88,70.39l2.22,0.5A2.25,2.25,0,0,1,91.88,73v1.21H79.75V73a2.25,2.25,0,0,1,1.62-2.07l2.23-.5V51.68l-2.23-.5a2.25,2.25,0,0,1-1.62-2.07V47.89h8.09L88,50.37a10.09,10.09,0,0,1,9.71-2.78v4.35c-2-.51-9.71-1.47-9.71,5.92Z" transform="translate(-5 -1.2)"/><path class="cls-1" d="M127.92,61a8.57,8.57,0,0,1-.1,1.72h-22.6a9.54,9.54,0,0,0,9.5,8.14,13.68,13.68,0,0,0,9.1-3.59l2.58,3.34a17.37,17.37,0,0,1-11.68,4.14,13.76,13.76,0,0,1-1.1-27.5q0.52,0,1,0C122.52,47.28,127.92,53.45,127.92,61ZM123,59c-0.66-4.55-3.74-7.79-8.29-7.79A9.58,9.58,0,0,0,105.33,59H123Z" transform="translate(-5 -1.2)"/><path class="cls-1" d="M155.73,67.76c0,2.53,3,2.58,3,2.58L158,74.18h-0.76c-3.13,0-5.46-1.72-6-3.74,0.05,0.35-2.38,4.35-8.39,4.35-7.38,0-10.41-4.2-10.41-8.39,0-11.88,18.7-7.53,18.7-7.53,0-5.76-2.43-7.74-6.32-7.74a10.6,10.6,0,0,0-7.63,3.23l-2.93-2.78s3.39-4.3,10.62-4.3c8.24,0,10.82,5,10.82,12.94Zm-4.55-5s-14.1-3.13-14.1,3.34c0,2.12,2,4.7,6.22,4.7a7.77,7.77,0,0,0,7.89-7.23V62.76Z" transform="translate(-5 -1.2)"/><path class="cls-1" d="M168.36,47.89h6.82v3.59h-6.72V66c0,2.68,1.16,5,3.64,5a7.68,7.68,0,0,0,3.54-1.16l1.62,3.34a9.11,9.11,0,0,1-5.16,1.67c-5.16,0-8.09-3.49-8.09-8.8V51.48h-4V47.89h4l1.06-4.55a2.25,2.25,0,0,1,2.07-1.62h1.21v6.17Z" transform="translate(-5 -1.2)"/><path class="cls-1" d="M184.81,51.68l-2.22-.5A2.25,2.25,0,0,1,181,49.1V47.89h8.34v22.5l2.22,0.5A2.25,2.25,0,0,1,193.15,73v1.21H181V73a2.25,2.25,0,0,1,1.62-2.07l2.22-.5Z" transform="translate(-5 -1.2)"/><path class="cls-1" d="M196.18,47.89H206.9V49.1a2.25,2.25,0,0,1-1.62,2.07l-0.76.2,6,13.35,6.12-13.35-0.71-.2a2.25,2.25,0,0,1-1.62-2.07V47.89H225V49.1a2.25,2.25,0,0,1-1.62,2.07l-1.87.45L210.79,74.18h-0.51l-10.82-22.6-1.67-.4a2.25,2.25,0,0,1-1.62-2.07V47.89Z" transform="translate(-5 -1.2)"/><path class="cls-1" d="M254.22,61a8.47,8.47,0,0,1-.1,1.72h-22.6A9.55,9.55,0,0,0,241,70.89a13.68,13.68,0,0,0,9.1-3.59l2.58,3.34A17.36,17.36,0,0,1,241,74.79a13.76,13.76,0,1,1-1.1-27.5q0.52,0,1,0C248.81,47.28,254.22,53.45,254.22,61Zm-5-2.07c-0.66-4.55-3.74-7.79-8.29-7.79A9.58,9.58,0,0,0,231.62,59Z" transform="translate(-5 -1.2)"/></g></svg>