<svg id="Layer_1" data-name="Layer 1" xmlns="http://www.w3.org/2000/svg" viewBox="0 0 288.8 73.65"><defs><style>.cls-1{fill:#2f4449;}.cls-2{fill:#fff;}</style></defs><title>sc-logo-gray-white-i</title><g id="Layer1"><path class="cls-1" d="M21.52,28.61c0,3.94-3.18,8-10.82,8C6,36.6,1.85,34.8,0,32.45l3.23-3.19C4.38,30.8,7.72,32.5,10.8,32.5c3.69,0,6.2-1.56,6.2-3.7,0-5.4-15.91-1.91-15.91-12.12,0-4,3.84-7.74,10.27-7.74,3.79,0,7.48,1.32,9.25,3.39l-2.93,5.31-1.16-.35A2.24,2.24,0,0,1,15,15.11l0.15-1.41a13.25,13.25,0,0,0-3.84-.61c-3.08,0-5.71,1.57-5.71,3.34C5.64,22.54,21.52,19.26,21.52,28.61Z"/><path class="cls-1" d="M52.71,22.8a8.48,8.48,0,0,1-.1,1.72H30a9.54,9.54,0,0,0,9.5,8.14,13.68,13.68,0,0,0,9.1-3.59l2.58,3.34A17.36,17.36,0,0,1,39.51,36.6a14,14,0,0,1-14.2-13.8h0A13.92,13.92,0,0,1,39.45,9.1h0C47.3,9.1,52.71,15.26,52.71,22.8Zm-5-2.07C47,16.18,44,12.94,39.42,12.94a9.58,9.58,0,0,0-9.31,7.86Z"/><path class="cls-1" d="M64.53,32.2l2.23,0.51a2.25,2.25,0,0,1,1.62,2.09V36H56.24V34.8a2.25,2.25,0,0,1,1.62-2.07l2.22-.51V13.49L57.86,13a2.24,2.24,0,0,1-1.62-2.07V9.7h8.09l0.2,2.48A10.09,10.09,0,0,1,74.24,9.4v4.35c-2-.51-9.71-1.47-9.71,5.91V32.2Z"/><path class="cls-1" d="M103.41,22.8a8.49,8.49,0,0,1-.1,1.72H80.71a9.55,9.55,0,0,0,9.5,8.14,13.68,13.68,0,0,0,9.1-3.59l2.58,3.34A17.36,17.36,0,0,1,90.21,36.6,14,14,0,0,1,76,22.81h0A13.92,13.92,0,0,1,90.14,9.1h0C98,9.1,103.41,15.26,103.41,22.8Zm-5-2.07c-0.66-4.55-3.74-7.79-8.29-7.79a9.58,9.58,0,0,0-9.31,7.86Z"/><path class="cls-1" d="M129.9,20.72c0-5-2.63-7.58-6.37-7.58-4.25,0-8.34,2.83-8.34,8.85V32.2l2.22,0.51A2.25,2.25,0,0,1,119,34.8V36H106.95V34.8a2.25,2.25,0,0,1,1.62-2.07l2.23-.51V13.49L108.57,13a2.24,2.24,0,0,1-1.62-2.07V9.7H115l0.2,3.89c1.06-2.07,3.44-4.75,8.9-4.75,7,0,10.21,4.85,10.21,11.43v9.45c0,2.43,3.19,2.43,3.19,2.43L136.79,36h-1c-3.29,0-6-2.48-6-5.06Z"/><path class="cls-1" d="M153.1,36.65c-7.08,0-12.79-6.17-12.79-13.75S146,9.1,153.1,9.1a12.06,12.06,0,0,1,9.71,4.85V3.8l-2.22-.5A2.25,2.25,0,0,1,159,1.21V0h8.34V29.57c0,2.53,3,2.58,3,2.58L169.63,36h-0.76c-3.28,0-5.56-1.92-6-4.15A12,12,0,0,1,153.1,36.65ZM144.91,22.9c0,5.31,4,9.61,8.95,9.61s8.9-4.3,8.9-9.61-4-9.61-8.9-9.61S144.91,17.59,144.91,22.9Z"/><path class="cls-2" d="M182.72,26.95L185,27.27a2.25,2.25,0,0,1,1.78,1.94l0.1,1.21-8.31.68L176.7,8.68l-2.26-.32a2.25,2.25,0,0,1-1.78-1.93l-0.1-1.21,12.14-1,0.1,1.21a2.25,2.25,0,0,1-1.44,2.2l-2.18.69Zm0.69,8-4.49.37,0.37,4.48,4.48-.37Z"/><path class="cls-1" d="M199.07,39.26l1.38,0.54a2.25,2.25,0,0,1,1.61,2V43H191.19V41.8a2.25,2.25,0,0,1,1.62-2l1.76-.51V13.49L192.81,13a2.24,2.24,0,0,1-1.62-2.07V9.7h7.67l0.2,4.14A12,12,0,0,1,208.77,9c7.08,0,12.79,6.17,12.79,13.75s-5.71,13.8-12.79,13.8a12.06,12.06,0,0,1-9.71-4.85v7.52h0ZM217,22.8c0-5.31-4-9.6-8.95-9.6s-8.9,4.3-8.9,9.6,4,9.61,8.9,9.61S217,28.1,217,22.8Z"/><path class="cls-1" d="M228.69,13.49L226.47,13a2.25,2.25,0,0,1-1.62-2.07V9.7h8.34V32.2l2.22,0.51A2.25,2.25,0,0,1,237,34.8V36H224.85V34.8a2.25,2.25,0,0,1,1.62-2.07l2.22-.51V13.49Zm0-8.39h4.5V0.6h-4.5V5.1Z"/><path class="cls-1" d="M247.7,9.7h6.82v3.59H247.8V27.8c0,2.68,1.16,5,3.64,5A7.7,7.7,0,0,0,255,31.64L256.62,35a9.11,9.11,0,0,1-5.16,1.67c-5.16,0-8.09-3.49-8.09-8.8V13.29h-4V9.7h4l1.06-4.55a2.24,2.24,0,0,1,2.07-1.62h1.21V9.7h0Z"/><path class="cls-1" d="M278.08,9.7H288.8v1.21A2.24,2.24,0,0,1,287.18,13l-1.57.36L276.66,31.8c-3.79,7.79-8.39,13.65-12.84,16.33l-2.53-3.89c4.71-3,6.71-5.44,10.27-12.14l-9-18.7L260.74,13a2.24,2.24,0,0,1-1.62-2.07V9.7h10.72v1.21A2.24,2.24,0,0,1,268.22,13l-0.61.15L274,27.19l6.32-14.05L279.66,13A2.24,2.24,0,0,1,278,10.92Z"/><path class="cls-1" d="M68.08,66.8l2.38,3.44a17.41,17.41,0,0,1-10.67,3.34A13.75,13.75,0,1,1,69.85,50.43l-3,5.81-1.16-.35a2.27,2.27,0,0,1-1.47-2.17l0.3-2.38A9.25,9.25,0,0,0,59.82,50a9.84,9.84,0,0,0,0,19.67A14,14,0,0,0,68.08,66.8Z"/><path class="cls-1" d="M83,69.19l2.22,0.5a2.25,2.25,0,0,1,1.66,2.11V73H74.75V71.8a2.25,2.25,0,0,1,1.62-2.07l2.23-.5V50.48L76.37,50a2.25,2.25,0,0,1-1.62-2.07V46.69h8.09L83,49.17a10.09,10.09,0,0,1,9.71-2.78v4.35c-2-.51-9.71-1.47-9.71,5.92V69.19Z"/><path class="cls-1" d="M122.92,59.8a8.57,8.57,0,0,1-.1,1.72h-22.6a9.54,9.54,0,0,0,9.5,8.14,13.68,13.68,0,0,0,9.1-3.59l2.58,3.34a17.37,17.37,0,0,1-11.68,4.14,13.76,13.76,0,1,1-1.1-27.5h1C117.52,46.08,122.92,52.25,122.92,59.8Zm-4.92-2c-0.66-4.55-3.74-7.79-8.29-7.79a9.58,9.58,0,0,0-9.38,7.79H118Z"/><path class="cls-1" d="M150.73,66.56c0,2.53,3,2.58,3,2.58L153,73h-0.76c-3.13,0-5.46-1.72-6-3.74,0.05,0.35-2.38,4.35-8.39,4.35-7.38,0-10.41-4.2-10.41-8.39,0-11.88,18.7-7.53,18.7-7.53,0-5.76-2.43-7.74-6.32-7.74a10.6,10.6,0,0,0-7.63,3.23l-2.93-2.78s3.39-4.3,10.62-4.3c8.24,0,10.82,5,10.82,12.94Zm-4.55-5s-14.1-3.13-14.1,3.34c0,2.12,2,4.7,6.22,4.7a7.77,7.77,0,0,0,7.89-7.23V61.56h0Z"/><path class="cls-1" d="M163.36,46.69h6.82v3.59h-6.72V64.8c0,2.68,1.16,5,3.64,5a7.68,7.68,0,0,0,3.54-1.16L172.26,72a9.11,9.11,0,0,1-5.16,1.67c-5.16,0-8.09-3.49-8.09-8.8V50.28h-4V46.69h4l1.06-4.55a2.25,2.25,0,0,1,2.07-1.62h1.21v6.17h0Z"/><path class="cls-1" d="M179.81,50.48l-2.22-.5A2.25,2.25,0,0,1,176,47.9V46.69h8.34v22.5l2.22,0.5a2.25,2.25,0,0,1,1.59,2.11V73H176V71.8a2.25,2.25,0,0,1,1.62-2.07l2.22-.5Z"/><path class="cls-1" d="M191.18,46.69H201.9V47.9A2.25,2.25,0,0,1,200.28,50l-0.76.2,6,13.35,6.12-13.35-0.71-.2a2.25,2.25,0,0,1-1.62-2.07V46.69H220V47.9A2.25,2.25,0,0,1,218.38,50l-1.87.45L205.79,73h-0.51l-10.82-22.6-1.67-.4a2.25,2.25,0,0,1-1.62-2.07V46.69h0Z"/><path class="cls-1" d="M249.22,59.8a8.47,8.47,0,0,1-.1,1.72h-22.6A9.55,9.55,0,0,0,236,69.69a13.68,13.68,0,0,0,9.1-3.59l2.58,3.34A17.36,17.36,0,0,1,236,73.59a13.76,13.76,0,1,1-1.1-27.5h1C243.81,46.08,249.22,52.25,249.22,59.8Zm-5-2.07c-0.66-4.55-3.74-7.79-8.29-7.79a9.58,9.58,0,0,0-9.31,7.86Z"/></g></svg>