<?xml version="1.0" encoding="utf-8"?>
<!-- Generator: Adobe Illustrator 21.0.0, SVG Export Plug-In . SVG Version: 6.00 Build 0)  -->
<svg version="1.1" id="Layer_1" xmlns="http://www.w3.org/2000/svg" xmlns:xlink="http://www.w3.org/1999/xlink" x="0px" y="0px"
	 viewBox="0 0 25.6 33.5" style="enable-background:new 0 0 25.6 33.5;" xml:space="preserve">
<style type="text/css">
	.st0{fill:#425258;}
</style>
<g>
	<circle class="st0" cx="12.8" cy="1.6" r="1.5"/>
	<circle class="st0" cx="12.8" cy="6.5" r="1.5"/>
	<ellipse transform="matrix(0.7071 -0.7071 0.7071 0.7071 -11.1827 15.2655)" class="st0" cx="12.8" cy="21.1" rx="1.5" ry="1.5"/>
	<ellipse transform="matrix(0.7071 -0.7071 0.7071 0.7071 -14.6419 16.6983)" class="st0" cx="12.8" cy="26" rx="1.5" ry="1.5"/>
	<g>
		<ellipse transform="matrix(0.7071 -0.7071 0.7071 0.7071 -18.8377 18.4118)" class="st0" cx="12.8" cy="31.9" rx="1.5" ry="1.5"/>
		<g>
			
				<ellipse transform="matrix(0.7071 -0.7071 0.7071 0.7071 -14.9887 20.0061)" class="st0" cx="16.7" cy="28.1" rx="1.5" ry="1.5"/>
			
				<ellipse transform="matrix(0.7071 -0.7071 0.7071 0.7071 -11.2249 21.5131)" class="st0" cx="20.4" cy="24.3" rx="1.5" ry="1.5"/>
			<ellipse transform="matrix(0.7071 -0.7071 0.7071 0.7071 -7.5868 23.0721)" class="st0" cx="24.1" cy="20.7" rx="1.5" ry="1.5"/>
		</g>
		<g>
			<ellipse transform="matrix(0.7071 -0.7071 0.7071 0.7071 -17.226 14.6047)" class="st0" cx="9" cy="28.1" rx="1.5" ry="1.5"/>
			<ellipse transform="matrix(0.7071 -0.7071 0.7071 0.7071 -15.6302 10.8777)" class="st0" cx="5.3" cy="24.3" rx="1.5" ry="1.5"/>
			<ellipse transform="matrix(0.7071 -0.7071 0.7071 0.7071 -14.1601 7.2027)" class="st0" cx="1.6" cy="20.7" rx="1.5" ry="1.5"/>
		</g>
	</g>
	<ellipse transform="matrix(0.7071 -0.7071 0.7071 0.7071 -4.2645 12.3999)" class="st0" cx="12.8" cy="11.3" rx="1.5" ry="1.5"/>
	<ellipse transform="matrix(0.7071 -0.7071 0.7071 0.7071 -7.7236 13.8327)" class="st0" cx="12.8" cy="16.2" rx="1.5" ry="1.5"/>
</g>
</svg>
