<svg id="Layer1" xmlns="http://www.w3.org/2000/svg" xmlns:xlink="http://www.w3.org/1999/xlink" viewBox="0 0 19.5 13.79"><defs><style>.cls-1{fill:#425157;}.cls-2{fill:#fff;}.cls-3{fill:none;stroke:#4d4d4d;stroke-linecap:round;stroke-miterlimit:10;stroke-width:1.71px;}.cls-4{fill:#ef6843;}.cls-5{font-size:20px;fill:#f97838;font-family:Azo Sans;font-weight:700;}.cls-6{fill:#787f7f;}</style><symbol id="New_Symbol" data-name="New Symbol" viewBox="0 0 1384.43 100.05"><rect class="cls-1" x="72.55" width="1311.88" height="100.05"/><rect class="cls-2" x="95.38" y="34.81" width="29.5" height="29.5"/><line class="cls-3" x1="0.85" y1="46.83" x2="18.41" y2="46.83"/><line class="cls-3" x1="0.85" y1="52.8" x2="18.41" y2="52.8"/><line class="cls-3" x1="0.85" y1="58.77" x2="18.41" y2="58.77"/><path class="cls-2" d="M186.29,42.22c0,2.86-2.31,5.78-7.83,5.78-3.37,0-6.41-1.32-7.76-3L173,42.69A7.85,7.85,0,0,0,178.53,45c2.67,0,4.47-1.13,4.47-2.67,0-3.92-11.5-1.39-11.5-8.79,0-2.89,2.78-5.6,7.43-5.6,2.74,0,5.42,1,6.7,2.45l-2.12,3.84L182.67,34a1.62,1.62,0,0,1-1.06-1.58l0.11-1a9.59,9.59,0,0,0-2.78-.44c-2.23,0-4.14,1.13-4.14,2.42C174.8,37.83,186.29,35.45,186.29,42.22Z"/><path class="cls-2" d="M208.87,38a6.14,6.14,0,0,1-.07,1.24H192.44a6.91,6.91,0,0,0,6.88,5.89,9.9,9.9,0,0,0,6.59-2.6L207.78,45a12.57,12.57,0,0,1-8.46,3,10,10,0,1,1,0-19.91C205,28.09,208.87,32.56,208.87,38Zm-3.59-1.5c-0.48-3.29-2.71-5.64-6-5.64a6.94,6.94,0,0,0-6.77,5.64h12.78Z"/><path class="cls-2" d="M217.44,44.82L219,45.18a1.63,1.63,0,0,1,1.17,1.5v0.88h-8.79V46.69a1.63,1.63,0,0,1,1.17-1.5l1.61-.37V31.27l-1.61-.37a1.63,1.63,0,0,1-1.17-1.5V28.53h5.86l0.15,1.79a7.31,7.31,0,0,1,7-2v3.15c-1.43-.37-7-1.06-7,4.28v9.08Z"/><path class="cls-2" d="M245.59,38a6.14,6.14,0,0,1-.07,1.24H229.15A6.91,6.91,0,0,0,236,45.18a9.9,9.9,0,0,0,6.59-2.6L244.49,45A12.57,12.57,0,0,1,236,48a10,10,0,1,1,0-19.91C241.67,28.09,245.59,32.56,245.59,38ZM242,36.55c-0.48-3.29-2.71-5.64-6-5.64a6.94,6.94,0,0,0-6.77,5.64H242Z"/><path class="cls-2" d="M264.77,36.51c0-3.59-1.9-5.49-4.61-5.49-3.08,0-6,2.05-6,6.41v7.39l1.61,0.37a1.63,1.63,0,0,1,1.17,1.5v0.88h-8.75V46.69a1.63,1.63,0,0,1,1.17-1.5l1.61-.37V31.27l-1.61-.37a1.63,1.63,0,0,1-1.17-1.5V28.53H254l0.15,2.82c0.77-1.5,2.49-3.44,6.44-3.44,5.09,0,7.39,3.52,7.39,8.27V43c0,1.76,2.31,1.76,2.31,1.76l-0.51,2.78h-0.7c-2.38,0-4.32-1.79-4.32-3.66V36.51Z"/><path class="cls-2" d="M281.57,48c-5.12,0-9.26-4.47-9.26-10s4.14-10,9.26-10a8.73,8.73,0,0,1,7,3.51V24.24L287,23.88a1.63,1.63,0,0,1-1.17-1.5V21.5h6V42.92c0,1.83,2.16,1.87,2.16,1.87l-0.51,2.78H293c-2.38,0-4-1.39-4.35-3A8.7,8.7,0,0,1,281.57,48Zm-5.93-10a6.48,6.48,0,1,0,12.92,0A6.48,6.48,0,1,0,275.64,38.08Z"/><path class="cls-4" d="M303,41l1.63,0.23a1.63,1.63,0,0,1,1.29,1.4L306,43.53,300,44l-1.33-16.24L297,27.55a1.63,1.63,0,0,1-1.29-1.4l-0.07-.88,8.79-.72,0.07,0.88a1.63,1.63,0,0,1-1,1.59l-1.58.5Zm0.5,5.81-3.25.27,0.27,3.25,3.25-.27Z"/><path class="cls-2" d="M314.85,49.93l1,0.37a1.63,1.63,0,0,1,1.17,1.5v0.88h-7.87V51.79a1.63,1.63,0,0,1,1.17-1.5l1.27-.37V31.27l-1.27-.37a1.63,1.63,0,0,1-1.17-1.5V28.53h5.56l0.15,3a8.7,8.7,0,0,1,7-3.48c5.13,0,9.26,4.47,9.26,10S327,48,321.88,48a8.74,8.74,0,0,1-7-3.51v5.44Zm13-11.92a6.48,6.48,0,1,0-12.92,0A6.48,6.48,0,1,0,327.81,38Z"/><path class="cls-2" d="M336.31,31.27l-1.61-.37a1.63,1.63,0,0,1-1.17-1.5V28.53h6V44.82l1.61,0.37a1.63,1.63,0,0,1,1.17,1.5v0.88h-8.82V46.69a1.63,1.63,0,0,1,1.17-1.5l1.61-.37V31.27Zm0-6.08h3.26V21.94h-3.26V25.2Z"/><path class="cls-2" d="M350.07,28.53H355v2.6h-4.87V41.67c0,1.94.84,3.59,2.64,3.59a5.58,5.58,0,0,0,2.56-.84l1.17,2.42A6.6,6.6,0,0,1,352.78,48c-3.73,0-5.86-2.53-5.86-6.37V31.13H344v-2.6h2.93l0.77-3.29a1.63,1.63,0,0,1,1.5-1.17h0.88v4.47Z"/><path class="cls-2" d="M372.07,28.53h7.76v0.88a1.63,1.63,0,0,1-1.17,1.5l-1.13.26L371,44.53c-2.75,5.64-6.08,9.88-9.3,11.82l-1.83-2.82c3.44-2.2,4.87-4,7.43-8.79L360.83,31.2l-1.32-.29a1.63,1.63,0,0,1-1.17-1.5V28.53h7.76v0.88a1.62,1.62,0,0,1-1.17,1.5l-0.44.11,4.65,10.18L373.71,31l-0.48-.11a1.63,1.63,0,0,1-1.17-1.5V28.53Z"/><path class="cls-2" d="M220,69.88l1.72,2.49A12.61,12.61,0,0,1,214,74.79,10,10,0,1,1,221.28,58l-2.2,4.21L218.25,62a1.65,1.65,0,0,1-1.06-1.57l0.22-1.72a6.7,6.7,0,0,0-3.4-1A7.12,7.12,0,0,0,214,72,10.1,10.1,0,0,0,220,69.88Z"/><path class="cls-2" d="M230.84,71.6L232.45,72a1.63,1.63,0,0,1,1.17,1.5v0.88h-8.79V73.47A1.63,1.63,0,0,1,226,72l1.61-.36V58.06L226,57.69a1.63,1.63,0,0,1-1.17-1.5V55.31h5.86l0.15,1.79a7.3,7.3,0,0,1,7-2v3.15c-1.43-.37-7-1.06-7,4.28V71.6Z"/><path class="cls-2" d="M259.72,64.83a6.21,6.21,0,0,1-.07,1.24H243.28A6.91,6.91,0,0,0,250.17,72a9.91,9.91,0,0,0,6.59-2.6l1.87,2.42a12.58,12.58,0,0,1-8.46,3,10,10,0,1,1,0-19.91C255.8,54.87,259.72,59.34,259.72,64.83Zm-3.59-1.5c-0.48-3.29-2.71-5.64-6-5.64a6.94,6.94,0,0,0-6.77,5.64h12.78Z"/><path class="cls-2" d="M279.85,69.7c0,1.83,2.16,1.87,2.16,1.87l-0.51,2.78h-0.55c-2.27,0-4-1.24-4.32-2.71,0,0.25-1.72,3.15-6.08,3.15-5.34,0-7.54-3-7.54-6.08,0-8.6,13.54-5.45,13.54-5.45,0-4.17-1.76-5.6-4.58-5.6A7.68,7.68,0,0,0,266.45,60l-2.12-2A10,10,0,0,1,272,54.87c6,0,7.83,3.59,7.83,9.37V69.7Zm-3.29-3.63s-10.21-2.27-10.21,2.42c0,1.54,1.43,3.4,4.5,3.4a5.63,5.63,0,0,0,5.71-5.23V66.07Z"/><path class="cls-2" d="M289,55.31h4.94v2.6h-4.87V68.45c0,1.94.84,3.59,2.64,3.59a5.56,5.56,0,0,0,2.56-.84l1.17,2.42a6.6,6.6,0,0,1-3.73,1.21c-3.73,0-5.86-2.53-5.86-6.37V57.91h-2.93v-2.6h2.93L286.62,52a1.63,1.63,0,0,1,1.5-1.17H289v4.47Z"/><path class="cls-2" d="M300.91,58.06l-1.61-.37a1.63,1.63,0,0,1-1.17-1.5V55.31h6V71.6L305.78,72a1.63,1.63,0,0,1,1.17,1.5v0.88h-8.82V73.47A1.63,1.63,0,0,1,299.3,72l1.61-.36V58.06Z"/><path class="cls-2" d="M309.14,55.31h7.76v0.88a1.63,1.63,0,0,1-1.17,1.5l-0.55.15,4.36,9.67L324,57.84l-0.51-.15a1.63,1.63,0,0,1-1.17-1.5V55.31H330v0.88a1.63,1.63,0,0,1-1.17,1.5l-1.35.33-7.8,16.33h-0.37L311.53,58l-1.21-.29a1.63,1.63,0,0,1-1.17-1.5V55.31Z"/><path class="cls-2" d="M351.17,64.83a6.14,6.14,0,0,1-.07,1.24H334.73A6.91,6.91,0,0,0,341.61,72a9.91,9.91,0,0,0,6.59-2.6l1.87,2.42a12.57,12.57,0,0,1-8.45,3,10,10,0,1,1,0-19.91C347.25,54.87,351.17,59.34,351.17,64.83Zm-3.59-1.5c-0.48-3.29-2.71-5.64-6-5.64a6.94,6.94,0,0,0-6.77,5.64h12.78Z"/><text class="cls-5" transform="translate(1219.21 57.45)">G<tspan x="15.12" y="0">e</tspan><tspan x="26.56" y="0">t in </tspan><tspan x="63.8" y="0">t</tspan><tspan x="72.24" y="0">ouch!</tspan></text><path class="cls-6" d="M1188.69,30.24a20,20,0,1,0,20,20,20,20,0,0,0-20-20m10,12.55-10.18,8.08-10.18-8.08h20.37ZM1177,43.86l7.18,5.69L1177,56.73V43.86Zm1,14.26,7.53-7.53,3,2.36,0.05,0.06h0l0,0,3.16-2.51,7.65,7.65h-21.41Zm22.54-1.22L1193,49.43l7.47-5.92V56.9Z"/><path class="cls-6" d="M1140.22,30.24a20,20,0,1,0,20,20A20,20,0,0,0,1140.22,30.24Zm10.61,11L1146,44.9a0.85,0.85,0,0,1-.9,0l-1.49-1.07a1.55,1.55,0,0,0-1-.24s-1.93.3-4.93,4.47-2.66,6.09-2.66,6.09a1.55,1.55,0,0,0,.54.86l1.75,1.26a0.81,0.81,0,0,1,.28.85l-2.18,5.62a0.38,0.38,0,0,1-.62.2L1130.71,60a1.91,1.91,0,0,1-.61-0.85s-1.52-5,4.47-13.32,11.21-8.48,11.21-8.48a1.93,1.93,0,0,1,1,.31l4.07,2.93A0.36,0.36,0,0,1,1150.83,41.21Z"/></symbol></defs><title>menu-icon</title><use id="New_Symbol-3" data-name="New Symbol" width="1384.43" height="100.05" transform="translate(0.13 -45.91)" xlink:href="#New_Symbol"/></svg>