<svg id="Layer1" xmlns="http://www.w3.org/2000/svg" viewBox="0 0 27.17 35.34"><defs><style>.cls-1{fill:#fff;}</style></defs><title>arrow-down-white</title><circle class="cls-1" cx="13.63" cy="1.56" r="1.56"/><circle class="cls-1" cx="13.63" cy="6.73" r="1.56"/><circle class="cls-1" cx="13.63" cy="22.22" r="1.56" transform="translate(-11.72 16.15) rotate(-45)"/><circle class="cls-1" cx="13.63" cy="27.38" r="1.56" transform="translate(-15.37 17.66) rotate(-45)"/><circle class="cls-1" cx="13.6" cy="33.63" r="1.56" transform="translate(-19.8 19.47) rotate(-45)"/><circle class="cls-1" cx="17.67" cy="29.57" r="1.56" transform="translate(-15.73 21.15) rotate(-45)"/><circle class="cls-1" cx="21.57" cy="25.57" r="1.56" transform="translate(-11.76 22.74) rotate(-45)"/><circle class="cls-1" cx="25.48" cy="21.75" r="1.56" transform="translate(-7.92 24.39) rotate(-45)"/><circle class="cls-1" cx="9.6" cy="29.57" r="1.56" transform="translate(-18.09 15.45) rotate(-45)"/><circle class="cls-1" cx="5.7" cy="25.57" r="1.56" transform="translate(-16.41 11.52) rotate(-45)"/><circle class="cls-1" cx="1.79" cy="21.75" r="1.56" transform="translate(-14.86 7.64) rotate(-45)"/><circle class="cls-1" cx="13.63" cy="11.89" r="1.56" transform="translate(-4.41 13.12) rotate(-45)"/><circle class="cls-1" cx="13.63" cy="17.05" r="1.56" transform="translate(-8.06 14.64) rotate(-45)"/></svg>