<?xml version="1.0" encoding="utf-8"?>
<!-- Generator: Adobe Illustrator 19.2.1, SVG Export Plug-In . SVG Version: 6.00 Build 0)  -->
<svg version="1.1" xmlns="http://www.w3.org/2000/svg" xmlns:xlink="http://www.w3.org/1999/xlink" x="0px" y="0px"
	 viewBox="0 0 159.3 62.7" style="enable-background:new 0 0 159.3 62.7;" xml:space="preserve">
<style type="text/css">
	.st0{fill:#7C7C7C;}
	.st1{fill:#999999;}
	.st2{clip-path:url(#SVGID_2_);fill:none;stroke:#FFFFFF;}
	.st3{clip-path:url(#SVGID_4_);}
	.st4{clip-path:url(#SVGID_6_);}
	.st5{fill:#D3E0E2;}
	.st6{fill:#FF6D50;}
	.st7{opacity:0.1;clip-path:url(#SVGID_8_);}
	.st8{clip-path:url(#SVGID_10_);}
	.st9{fill:none;}
	.st10{fill:#425157;}
	.st11{fill:#FFFFFF;}
	.st12{fill:#231F20;}
	.st13{opacity:0.5;}
	.st14{fill:none;stroke:#425157;stroke-miterlimit:10;}
	.st15{clip-path:url(#SVGID_14_);}
	.st16{clip-path:url(#SVGID_16_);}
	.st17{fill:#1A1A1A;}
	.st18{fill:#5B6C74;}
	.st19{fill:#CCCCCC;}
	.st20{fill:#D46728;}
	.st21{fill:#211F1F;}
	.st22{fill:#808080;}
	.st23{fill:#3DA1D1;}
	.st24{fill:none;stroke:#E6E6E6;stroke-width:3;stroke-miterlimit:10;}
	.st25{fill:#4D4D4D;}
	.st26{fill:#333333;}
	.st27{fill:#EF6843;}
	.st28{fill:#99A8AD;}
	.st29{fill:none;stroke:#FF775D;stroke-miterlimit:10;}
	.st30{fill:#607075;}
	.st31{fill:#FF775D;}
	.st32{clip-path:url(#SVGID_18_);}
	.st33{clip-path:url(#SVGID_20_);}
	.st34{clip-path:url(#SVGID_22_);}
	.st35{clip-path:url(#SVGID_24_);}
	.st36{fill:#F2F2F2;}
	.st37{fill:#9AA5A8;}
	.st38{fill:none;stroke:#FFFFFF;stroke-miterlimit:10;}
	.st39{fill:#B3B3B3;}
	.st40{fill:#5D5D5D;}
	.st41{fill:none;stroke:#F97838;stroke-width:3;stroke-miterlimit:10;}
	.st42{fill:#F97838;}
	.st43{fill:none;stroke:#FF6D50;stroke-width:3;stroke-miterlimit:10;}
	.st44{clip-path:url(#SVGID_26_);}
	.st45{fill:none;stroke:#B3B3B3;stroke-width:0.728;stroke-miterlimit:10;}
	.st46{fill:#EBF1F2;}
	.st47{fill:none;stroke:#000000;stroke-width:3;stroke-linecap:round;stroke-linejoin:round;stroke-miterlimit:10;}
	.st48{fill:#79CEE3;}
	.st49{fill:#3C4C54;}
	.st50{fill:#EF672F;}
	.st51{fill:none;stroke:#94AAB2;stroke-width:6;stroke-miterlimit:10;}
	.st52{fill:none;stroke:#D3E0E2;stroke-miterlimit:10;}
	.st53{fill:none;stroke:#CCCCCC;stroke-width:6;stroke-miterlimit:10;}
	.st54{fill:#E6E6E6;}
	.st55{fill:none;stroke:#EF6843;stroke-width:3;stroke-miterlimit:10;}
	.st56{fill:#425157;stroke:#425157;stroke-width:3;stroke-miterlimit:10;}
	.st57{fill:none;stroke:#FF7E27;stroke-width:3;stroke-miterlimit:10;}
	.st58{fill:#FF7E27;}
	.st59{fill:#E2CE39;}
	.st60{clip-path:url(#SVGID_28_);}
	.st61{clip-path:url(#SVGID_30_);}
	.st62{opacity:0.38;}
	.st63{clip-path:url(#SVGID_32_);}
	.st64{clip-path:url(#SVGID_34_);}
	.st65{clip-path:url(#SVGID_36_);}
	.st66{clip-path:url(#SVGID_38_);}
	.st67{clip-path:url(#SVGID_40_);}
	.st68{clip-path:url(#SVGID_42_);}
	.st69{fill:#97A8AF;}
	.st70{clip-path:url(#SVGID_44_);}
	.st71{opacity:0.4;}
	.st72{clip-path:url(#SVGID_50_);}
	.st73{fill:#F9F9F9;}
	.st74{fill:none;stroke:#B3B3B3;stroke-miterlimit:10;}
	.st75{fill:none;stroke:#4D4D4D;stroke-width:1.709;stroke-linecap:round;stroke-miterlimit:10;}
	.st76{fill:none;stroke:#FF6D50;stroke-width:2;stroke-miterlimit:10;}
	.st77{clip-path:url(#SVGID_52_);}
	.st78{clip-path:url(#SVGID_54_);}
	.st79{clip-path:url(#SVGID_56_);}
	.st80{clip-path:url(#SVGID_58_);}
	.st81{clip-path:url(#SVGID_60_);}
	.st82{clip-path:url(#SVGID_62_);}
	.st83{fill:#2F4449;}
	.st84{opacity:0.15;clip-path:url(#SVGID_64_);}
	.st85{opacity:0.2;clip-path:url(#SVGID_64_);}
	.st86{clip-path:url(#SVGID_66_);}
	.st87{fill:none;stroke:#FFFFFF;stroke-width:1.1674;stroke-miterlimit:10;}
	.st88{fill:none;stroke:#EF6843;stroke-width:3.0525;stroke-miterlimit:10;}
	.st89{clip-path:url(#SVGID_68_);}
	.st90{clip-path:url(#SVGID_70_);}
	.st91{opacity:0.1;fill:#E73E30;}
	.st92{opacity:0.1;fill:#F39D97;}
	.st93{opacity:0.15;fill:#E73E30;}
	.st94{fill:#EC008C;}
	.st95{fill:none;stroke:#EC008C;stroke-width:5;stroke-miterlimit:10;}
	.st96{fill:none;stroke:#EC008C;stroke-width:3.6398;stroke-miterlimit:10;}
	.st97{fill:none;stroke:#EC008C;stroke-width:3.6567;stroke-miterlimit:10;}
	.st98{fill:#929DA0;}
	.st99{fill:#1384C7;}
	.st100{fill:#FF6A57;}
	.st101{fill:#787F7F;}
	.st102{clip-path:url(#SVGID_72_);}
	.st103{opacity:0.85;}
	.st104{fill:#050505;}
	.st105{fill:url(#SVGID_73_);}
	.st106{fill:url(#SVGID_74_);}
	.st107{fill:url(#SVGID_75_);}
	.st108{fill:url(#SVGID_76_);}
	.st109{fill:url(#SVGID_77_);}
	.st110{fill:url(#SVGID_78_);}
	.st111{fill:url(#SVGID_79_);}
	.st112{fill:url(#SVGID_80_);}
	.st113{fill:url(#SVGID_81_);}
	.st114{fill:url(#SVGID_82_);}
	.st115{fill:url(#SVGID_83_);}
	.st116{fill:url(#SVGID_84_);}
	.st117{fill:url(#SVGID_85_);}
	.st118{fill:url(#SVGID_86_);}
	.st119{fill:url(#SVGID_87_);}
	.st120{fill:url(#SVGID_88_);}
	.st121{fill:url(#SVGID_89_);}
	.st122{fill:url(#SVGID_90_);}
	.st123{fill:url(#SVGID_91_);}
	.st124{fill:url(#SVGID_92_);}
	.st125{fill:url(#SVGID_93_);}
	.st126{fill:url(#SVGID_94_);}
	.st127{fill:url(#SVGID_95_);}
	.st128{fill:url(#SVGID_96_);}
	.st129{fill:url(#SVGID_97_);}
	.st130{fill:#58595B;}
	.st131{fill-rule:evenodd;clip-rule:evenodd;fill:#231F20;}
	.st132{fill:#808285;}
	.st133{fill:url(#SVGID_98_);}
	.st134{fill:url(#SVGID_99_);}
	.st135{fill:url(#SVGID_100_);}
	.st136{fill:url(#SVGID_101_);}
	.st137{fill:url(#SVGID_102_);}
	.st138{fill:url(#SVGID_103_);}
	.st139{fill:url(#SVGID_104_);}
	.st140{fill:url(#SVGID_105_);}
	.st141{fill:url(#SVGID_106_);}
	.st142{fill:url(#SVGID_107_);}
	.st143{fill:url(#SVGID_108_);}
	.st144{fill:url(#SVGID_109_);}
	.st145{fill:url(#SVGID_110_);}
	.st146{fill:url(#SVGID_111_);}
	.st147{fill:url(#SVGID_112_);}
	.st148{fill:url(#SVGID_113_);}
	.st149{fill:url(#SVGID_114_);}
	.st150{fill:url(#SVGID_115_);}
	.st151{fill:url(#SVGID_116_);}
	.st152{fill:url(#SVGID_117_);}
	.st153{fill:url(#SVGID_118_);}
	.st154{fill:url(#SVGID_119_);}
	.st155{fill:url(#SVGID_120_);}
	.st156{fill:url(#SVGID_121_);}
	.st157{fill:url(#SVGID_122_);}
	.st158{fill:none;stroke:#E8563D;stroke-width:2;stroke-miterlimit:10;}
	.st159{fill:#E8563D;}
	.st160{clip-path:url(#SVGID_124_);}
</style>
<symbol  id="Search" viewBox="-7.1 -6.9 14.1 13.7">
	<path class="st0" d="M7-5.7l-4,4c0.6,0.9,0.9,1.9,0.9,3c0,3-2.5,5.5-5.5,5.5c-3,0-5.5-2.5-5.5-5.5c0-3,2.5-5.5,5.5-5.5
		c1.3,0,2.5,0.5,3.4,1.2l4-4L7-5.7z M-6,1.4c0,2.5,2,4.5,4.5,4.5c2.5,0,4.5-2,4.5-4.5c0-2.5-2-4.5-4.5-4.5C-4-3.1-6-1.1-6,1.4z"/>
</symbol>
<symbol  id="img_7_" viewBox="-129.7 -89.6 259.4 180">
	<rect x="-129.4" y="-89.2" class="st1" width="258.8" height="179.2"/>
	<g>
		<defs>
			<rect id="SVGID_1_" x="-129.4" y="-89.2" width="258.8" height="179.2"/>
		</defs>
		<clipPath id="SVGID_2_">
			<use xlink:href="#SVGID_1_"  style="overflow:visible;"/>
		</clipPath>
		<line class="st2" x1="-129.4" y1="90" x2="129.4" y2="-89.2"/>
		<line class="st2" x1="129.4" y1="90" x2="-129.4" y2="-89.2"/>
	</g>
</symbol>
<g id="bg">
</g>
<g id="Layer1">
	<g id="img_5_">
	</g>
	<g id="input">
	</g>
	<g id="go">
		<g id="go_1_">
		</g>
	</g>
	<g id="img_2_">
	</g>
	<g id="img">
	</g>
	<g id="img_3_">
	</g>
	<g id="img_1_">
	</g>
	<g id="button_default">
	</g>
	<g id="img_4_">
	</g>
	<g id="greek_text_1_">
	</g>
	<g id="greek_text">
	</g>
	<g id="go_2">
		<g id="go_4_">
		</g>
	</g>
	<g id="go_2_1_">
		<g id="go_5_">
		</g>
	</g>
	<g id="img_6_">
	</g>
	<g id="See_All">
	</g>
	<g id="go_2_2_">
		<g id="go_6_">
		</g>
	</g>
	<g id="See_All_1_">
	</g>
	<g id="FOOTER">
	</g>
	<g id="footer">
	</g>
	<g id="New_Symbol_1">
		<g id="footer_9_">
		</g>
	</g>
	<g id="New_Symbol">
	</g>
</g>
<g id="Layer_29">
</g>
<g id="Pop">
</g>
<g id="notes">
</g>
<g id="Grid">
</g>
<g id="design_notes">
	<rect x="-91.8" y="-845" class="st97" width="2028.9" height="2768"/>
</g>
<g id="Layer_31">
</g>
<g id="Layer_32">
</g>
<g id="Layer_33">
	<g>
		<g>
			<g>
				<path class="st12" d="M70.1,4.3c0-0.4-0.1-0.5-0.6-0.5h-2.9c-0.8,0-1.2,0.4-1.6,1.2c-0.2,0.6-0.2,1-0.5,1
					c-0.2,0-0.2-0.1-0.2-0.3c0-0.1,0-0.2,0-0.4l0.2-2.1c0-0.4,0.2-0.4,0.7-0.4c0.5,0,1.3,0.1,2.5,0.1h6.6c1.3,0,2.2-0.1,2.7-0.1
					c0.3,0,0.4,0.1,0.4,0.4L77.5,5c0,0,0,0.1,0,0.1c0,0.3-0.1,0.4-0.3,0.4c-0.4,0-0.2-0.5-0.5-1c-0.3-0.5-0.9-0.9-1.7-0.9h-2.7
					c-0.5,0-0.6,0.1-0.6,0.5v10.6c0,1,0,1.4,0.8,1.8c0.7,0.3,1.2,0.1,1.2,0.5c0,0.2-0.1,0.3-0.5,0.3c-0.6,0-1.4-0.1-2.4-0.1
					c-1.2,0-2,0.2-2.3,0.2c-0.3,0-0.4-0.1-0.4-0.3c0-0.5,0.7-0.3,1.2-0.5c0.8-0.3,0.8-0.8,0.8-1.9V4.3z"/>
				<path class="st12" d="M83.5,2.7c0.1-0.2,0.2-0.3,0.3-0.3c0.1,0,0.2,0.1,0.3,0.3l4.8,12.1c0.4,1,0.8,1.7,1.4,2
					c0.5,0.2,1,0.1,1,0.4c0,0.2-0.1,0.3-0.3,0.3c-0.3,0-1.1-0.1-2.4-0.1c-1.1,0-1.8,0.1-2,0.1c-0.1,0-0.2-0.1-0.2-0.3
					c0-0.3,0.2-0.3,0.5-0.4c0.5-0.2,0.7-0.4,0.7-0.7c0-0.2-0.1-0.4-0.2-0.8l-1.1-2.8c-0.2-0.5-0.4-0.7-0.9-0.7h-4.7
					c-0.6,0-0.7,0.3-0.9,0.8l-1,2.2c-0.2,0.4-0.3,0.8-0.3,1.1c0,0.4,0.3,0.7,0.8,0.9c0.4,0.1,0.8,0,0.8,0.4c0,0.2-0.1,0.3-0.3,0.3
					c-0.4,0-1.2-0.1-2.4-0.1c-0.6,0-1,0.1-1.2,0.1c-0.1,0-0.3-0.1-0.3-0.3c0-0.3,0.5-0.3,0.8-0.5c0.4-0.3,0.7-0.9,1.1-1.6L83.5,2.7z
					 M85.1,11c0.3,0,0.4-0.1,0.4-0.2c0-0.1,0-0.2-0.1-0.4l-1.9-4.9c-0.1-0.2-0.2-0.3-0.3-0.3c-0.1,0-0.2,0.1-0.3,0.2l-2.3,4.8
					c-0.1,0.1-0.1,0.3-0.1,0.4c0,0.2,0.2,0.3,0.5,0.3H85.1z"/>
			</g>
			<g>
				<path class="st12" d="M92.9,5.6c0-0.9,0-1.4-0.7-1.9C91.7,3.3,91,3.5,91,3.1c0-0.3,0.1-0.3,0.4-0.3c0.4,0,1.1,0.1,2.1,0.1
					c1.4,0,2.2-0.1,2.3-0.1c0.2,0,0.3,0.1,0.3,0.3c0,0.4-0.7,0.3-1.2,0.7c-0.5,0.4-0.5,0.9-0.5,1.8v3.2c0,0.5,0.1,0.5,0.5,0.5h7
					c0.5,0,0.6,0,0.6-0.5V5.6c0-0.9,0-1.4-0.7-1.9c-0.6-0.4-1.3-0.2-1.3-0.6c0-0.3,0.1-0.3,0.4-0.3c0.6,0,1.3,0.1,2.3,0.1
					c1.3,0,2-0.1,2.1-0.1c0.2,0,0.3,0.1,0.3,0.3c0,0.4-0.7,0.3-1.2,0.7c-0.5,0.4-0.5,0.9-0.5,1.8v9.1c0,0.9,0.1,1.5,0.7,2
					c0.6,0.4,1.2,0.2,1.2,0.6c0,0.3-0.1,0.3-0.4,0.3c-0.7,0-1.4-0.1-2.3-0.1c-1.3,0-2,0.1-2.2,0.1c-0.2,0-0.3-0.1-0.3-0.3
					c0-0.4,0.6-0.3,1.1-0.8c0.5-0.5,0.6-1,0.6-1.8v-4.1c0-0.4-0.2-0.4-0.6-0.4h-7c-0.4,0-0.5,0.1-0.5,0.4v4.1c0,0.9,0.1,1.5,0.7,2
					c0.6,0.4,1.2,0.2,1.2,0.6c0,0.3-0.1,0.3-0.4,0.3c-0.7,0-1.4-0.1-2.3-0.1c-1.3,0-2,0.1-2.2,0.1c-0.2,0-0.3-0.1-0.3-0.3
					c0-0.4,0.6-0.3,1.1-0.8c0.5-0.5,0.6-1,0.6-1.8V5.6z"/>
				<path class="st12" d="M109.5,5.6c0-0.9,0-1.4-0.6-1.9c-0.6-0.4-1.2-0.2-1.2-0.6c0-0.2,0.1-0.3,0.4-0.3c0.3,0,1,0.1,2.1,0.1
					c1.4,0,2.2-0.1,2.3-0.1c0.2,0,0.3,0.1,0.3,0.3c0,0.4-0.7,0.3-1.2,0.7c-0.5,0.4-0.5,0.9-0.5,1.8v9.1c0,0.9,0.1,1.5,0.7,2
					c0.6,0.4,1.2,0.2,1.2,0.6c0,0.3-0.1,0.3-0.4,0.3c-0.7,0-1.4-0.1-2.3-0.1c-1.3,0-2,0.1-2.2,0.1c-0.2,0-0.3-0.1-0.3-0.3
					c0-0.4,0.6-0.3,1.1-0.8c0.5-0.5,0.6-1,0.6-1.8V5.6z"/>
			</g>
			<g>
				<path class="st12" d="M116.6,5.6c0-0.9,0-1.4-0.6-1.9c-0.5-0.4-1.2-0.2-1.2-0.6c0-0.3,0.1-0.3,0.4-0.3c0.3,0,1,0.1,2,0.1
					c0.7,0,1.7-0.1,3.2-0.1c2.9,0,4.5,1.4,4.5,3.5c0,1.6-0.9,2.9-2.6,3.7l2.4,3.7c1,1.5,1.7,2.6,2.5,3.1c0.5,0.3,0.9,0.1,0.9,0.4
					c0,0.3-0.4,0.4-1.2,0.4c-1.7,0-2.5-1-3.5-2.7l-2.2-3.5c-0.5-0.8-1-0.9-2.1-0.9c-0.7,0-1,0.1-1,0.7v3.4c0,0.9,0.1,1.5,0.7,2
					c0.6,0.4,1.4,0.2,1.4,0.6c0,0.2-0.1,0.3-0.4,0.3c-0.4,0-1.2-0.1-2.4-0.1c-1.4,0-2.2,0.1-2.3,0.1c-0.2,0-0.3-0.1-0.3-0.3
					c0-0.4,0.6-0.3,1.2-0.8c0.5-0.5,0.5-1,0.5-1.8V5.6z M118.2,9.4c0,0.5,0.3,0.5,1.2,0.5c0.1,0,0.1,0,0.2,0c2.6,0,3.7-0.8,3.7-2.9
					c0-2.1-1.4-3.4-4-3.4c-0.8,0-1.1,0.1-1.1,0.8V9.4z"/>
				<path class="st12" d="M128.9,5.6c0-0.9,0-1.4-0.6-1.9c-0.6-0.4-1.2-0.2-1.2-0.6c0-0.2,0.1-0.3,0.4-0.3c0.3,0,1,0.1,2.1,0.1
					c1.4,0,2.2-0.1,2.3-0.1c0.2,0,0.3,0.1,0.3,0.3c0,0.4-0.7,0.3-1.2,0.7c-0.5,0.4-0.5,0.9-0.5,1.8v9.1c0,0.9,0.1,1.5,0.7,2
					c0.6,0.4,1.2,0.2,1.2,0.6c0,0.3-0.1,0.3-0.4,0.3c-0.7,0-1.4-0.1-2.3-0.1c-1.3,0-2,0.1-2.2,0.1c-0.2,0-0.3-0.1-0.3-0.3
					c0-0.4,0.6-0.3,1.1-0.8c0.5-0.5,0.6-1,0.6-1.8V5.6z"/>
			</g>
			<path class="st12" d="M136.2,5.6c0-0.9,0-1.4-0.7-1.9c-0.6-0.4-1.3-0.2-1.3-0.6c0-0.3,0.1-0.3,0.4-0.3c0.4,0,1.1,0.1,2.1,0.1
				c1.4,0,2.2-0.1,2.3-0.1c0.2,0,0.3,0.1,0.3,0.3c0,0.4-0.7,0.3-1.2,0.7c-0.5,0.4-0.5,0.9-0.5,1.8v3.2c0,0.5,0.1,0.5,0.5,0.5h7
				c0.5,0,0.6,0,0.6-0.5V5.6c0-0.9,0-1.4-0.7-1.9c-0.6-0.4-1.3-0.2-1.3-0.6c0-0.3,0.1-0.3,0.4-0.3c0.6,0,1.3,0.1,2.3,0.1
				c1.3,0,2-0.1,2.1-0.1c0.2,0,0.3,0.1,0.3,0.3c0,0.4-0.7,0.3-1.2,0.7c-0.5,0.4-0.5,0.9-0.5,1.8v9.1c0,0.9,0.1,1.5,0.7,2
				c0.6,0.4,1.2,0.2,1.2,0.6c0,0.3-0.1,0.3-0.4,0.3c-0.7,0-1.4-0.1-2.3-0.1c-1.3,0-2,0.1-2.2,0.1c-0.2,0-0.3-0.1-0.3-0.3
				c0-0.4,0.6-0.3,1.1-0.8c0.5-0.5,0.6-1,0.6-1.8v-4.1c0-0.4-0.2-0.4-0.6-0.4h-7c-0.4,0-0.5,0.1-0.5,0.4v4.1c0,0.9,0.1,1.5,0.7,2
				c0.6,0.4,1.2,0.2,1.2,0.6c0,0.3-0.1,0.3-0.4,0.3c-0.7,0-1.4-0.1-2.3-0.1c-1.3,0-2,0.1-2.2,0.1c-0.2,0-0.3-0.1-0.3-0.3
				c0-0.4,0.6-0.3,1.1-0.8c0.5-0.5,0.6-1,0.6-1.8V5.6z"/>
			<g>
				<path class="st12" d="M70.1,26.6c0-0.9-0.1-1.5-0.6-1.9c-0.6-0.4-1.3-0.1-1.3-0.6c0-0.2,0.1-0.3,0.4-0.3c0.3,0,1.1,0.1,2.1,0.1
					c1.1,0,1.8-0.1,2-0.1c0.2,0,0.3,0.1,0.3,0.3c0,0.4-0.5,0.4-0.9,0.8c-0.3,0.4-0.3,0.9-0.3,1.5c0,0.1,0,0.2,0,0.3v9.5
					c0,1.6,0,3-1,4.5c-0.8,1.2-1.9,1.9-2.9,1.9c-0.6,0-0.9-0.3-0.9-0.6c0-0.6,0.3-1.3,0.6-1.3c0.3,0,0.4,0.9,1.2,0.9
					c0.8,0,1.5-1.1,1.5-3V26.6z"/>
				<path class="st12" d="M76.1,24.7c-0.5-0.4-1.1-0.2-1.1-0.6c0-0.2,0.1-0.3,0.4-0.3c0.3,0,1,0.1,2,0.1c1.3,0,2-0.1,2.1-0.1
					c0.2,0,0.3,0.1,0.3,0.2c0,0.5-0.7,0.3-1.1,0.7c-0.3,0.3-0.4,0.9-0.4,1.9v5.1c0,2,0,3.4,0.7,4.5c0.7,1,1.9,1.7,3.6,1.7
					c1.7,0,2.9-0.5,3.7-1.6c0.8-1.1,0.9-2.6,0.9-4.5c0-0.1,0-0.2,0-0.3v-5c0-1-0.1-1.5-0.6-1.9c-0.6-0.4-1.3-0.2-1.3-0.6
					c0-0.3,0.1-0.3,0.4-0.3c0.5,0,1,0.1,1.7,0.1c1,0,1.6-0.1,1.8-0.1c0.2,0,0.3,0.1,0.3,0.2c0,0.5-0.6,0.3-1,0.7
					c-0.4,0.4-0.4,1-0.4,1.8v4.7c0,2.4,0,4.2-1.1,5.6c-1,1.3-2.6,2-4.5,2c-2,0-3.5-0.5-4.5-1.6c-1.2-1.3-1.3-3-1.3-5.2v-5.4
					C76.7,25.7,76.6,25.1,76.1,24.7z"/>
			</g>
			<g>
				<path class="st12" d="M91.2,34.9c0-0.1,0-0.3,0-0.4c0-0.2,0.1-0.3,0.3-0.3c0.4,0,0.4,0.6,0.9,1.6c0.7,1.3,2,2.1,3.7,2.1
					c2.2,0,3.5-1.3,3.5-3.2c0-1.8-1.2-2.5-3.5-3.1c-2.9-0.9-4.3-1.8-4.3-4.2c0-2.2,1.8-3.8,4.6-3.8c1.6,0,2.6,0.7,2.9,0.7
					c0.3,0,0.4-0.2,0.6-0.2c0.1,0,0.1,0.1,0.1,0.3l0.3,2.6c0,0.1,0,0.2,0,0.3c0,0.2-0.1,0.3-0.3,0.3c-0.4,0-0.3-0.5-0.8-1.3
					c-0.9-1.4-1.8-2-3.3-2c-1.8,0-3.1,1.1-3.1,2.6c0,1.7,1.1,2.1,3.1,2.8c1.5,0.5,2.6,0.8,3.4,1.5c0.9,0.8,1.3,1.9,1.3,3.3
					c0,2.6-1.9,4.4-5.2,4.4c-2.1,0-3.5-0.7-3.7-1.4L91.2,34.9z"/>
				<path class="st12" d="M107.9,25.3c0-0.4-0.1-0.5-0.6-0.5h-2.9c-0.8,0-1.2,0.4-1.6,1.2c-0.2,0.6-0.2,1-0.5,1
					c-0.2,0-0.2-0.1-0.2-0.3c0-0.1,0-0.2,0-0.4l0.2-2.1c0-0.4,0.2-0.4,0.7-0.4c0.5,0,1.3,0.1,2.5,0.1h6.6c1.3,0,2.2-0.1,2.7-0.1
					c0.3,0,0.4,0.1,0.4,0.4l0.1,1.9c0,0,0,0.1,0,0.1c0,0.3-0.1,0.4-0.3,0.4c-0.4,0-0.2-0.5-0.5-1c-0.3-0.5-0.9-0.9-1.7-0.9h-2.7
					c-0.5,0-0.7,0.1-0.7,0.5v10.6c0,1,0,1.4,0.8,1.8c0.7,0.3,1.2,0.1,1.2,0.5c0,0.2-0.1,0.3-0.5,0.3c-0.6,0-1.4-0.1-2.4-0.1
					c-1.2,0-2,0.2-2.3,0.2c-0.3,0-0.4-0.1-0.4-0.3c0-0.5,0.7-0.3,1.2-0.5c0.8-0.3,0.8-0.8,0.8-1.9V25.3z"/>
				<path class="st12" d="M118.6,26.6c0-0.9,0-1.4-0.6-1.9c-0.6-0.4-1.2-0.2-1.2-0.6c0-0.2,0.1-0.3,0.4-0.3c0.3,0,1.1,0.1,2.1,0.1
					c1.4,0,2.2-0.1,2.3-0.1c0.2,0,0.3,0.1,0.3,0.3c0,0.4-0.7,0.3-1.2,0.7c-0.5,0.4-0.5,0.9-0.5,1.8v9.1c0,0.9,0.1,1.5,0.7,2
					c0.6,0.4,1.2,0.2,1.2,0.6c0,0.3-0.1,0.3-0.4,0.3c-0.7,0-1.4-0.1-2.3-0.1c-1.3,0-2,0.1-2.2,0.1c-0.2,0-0.3-0.1-0.3-0.3
					c0-0.4,0.6-0.3,1.1-0.8c0.5-0.5,0.6-1,0.6-1.8V26.6z"/>
				<path class="st12" d="M130.8,38.8c-4.4,0-7.1-2.9-7.1-7.4c0-2.3,0.8-4.3,2.2-5.8c1.3-1.4,3-2,5.1-2c1.3,0,2.4,0.3,3.5,0.8
					c0.8,0.3,1.2,0.8,1.5,0.8c0.2,0,0.3-0.2,0.5-0.2c0.1,0,0.2,0.1,0.2,0.4l0.2,2.2c0,0.2,0,0.3,0,0.4c0,0.2,0,0.4-0.2,0.4
					c-0.4,0-0.4-0.7-0.8-1.3c-1.2-1.9-2.9-2.9-4.8-2.9c-3.2,0-5.5,2.5-5.5,6.4c0,4.5,2.5,7.5,5.7,7.5c1.5,0,3-0.6,4.2-1.7
					c0.8-0.8,0.9-1.6,1.3-1.6c0.1,0,0.2,0.1,0.2,0.3c0,0,0,0.2-0.1,0.3l-0.4,1.7C134.8,38.2,133,38.8,130.8,38.8z"/>
			</g>
			<path class="st12" d="M140.2,26.6c0-0.9,0-1.4-0.6-1.9c-0.5-0.4-1.2-0.2-1.2-0.6c0-0.3,0.1-0.3,0.4-0.3c0.2,0,1.4,0.1,3.9,0.1
				c3,0,4.7-0.2,5.1-0.2c0.3,0,0.4,0.1,0.4,0.4c0,0.1,0,0.2,0,0.3l-0.1,1.7c0,0.3-0.1,0.4-0.3,0.4c-0.2,0-0.3-0.1-0.3-0.4
				c0-0.1,0-0.2,0-0.2c0-1.1-0.8-1.4-2.6-1.4c-0.6,0-1.1,0-1.5,0c-1.2,0-1.6,0.1-1.6,0.8v4.3c0,0.7,0,0.8,0.7,0.8h1.7
				c1.1,0,1.7-0.1,2.1-0.7c0.3-0.4,0.2-1,0.5-1c0.1,0,0.3,0.1,0.3,0.5c0,0.3-0.1,0.9-0.1,1.9c0,0.8,0.1,1.3,0.1,1.4
				c0,0.3-0.1,0.4-0.3,0.4c-0.4,0-0.3-0.5-0.4-1c-0.3-0.7-0.9-0.8-2-0.8h-2c-0.5,0-0.6,0.1-0.6,0.7v4.3c0,1.1,0.4,1.3,1.7,1.3
				c1.9,0,3.5-0.5,4.3-1c0.8-0.5,0.9-1.2,1.2-1.2c0.1,0,0.2,0.1,0.2,0.4c0,0.3-0.2,1.1-0.7,1.6c-0.7,0.8-1.3,1.1-2.3,1.1
				c-0.7,0-1.9-0.1-3.7-0.1c-2.3,0-3.5,0.1-3.7,0.1c-0.1,0-0.2-0.1-0.2-0.3c0-0.4,0.5-0.3,1-0.8c0.5-0.5,0.5-1,0.5-1.8V26.6z"/>
			<g>
				<path class="st12" d="M74.7,59.8c-4.4,0-7.1-2.9-7.1-7.4c0-2.3,0.8-4.3,2.2-5.8c1.3-1.4,3-2,5.1-2c1.3,0,2.4,0.3,3.5,0.8
					c0.8,0.3,1.2,0.8,1.5,0.8c0.2,0,0.3-0.2,0.5-0.2c0.1,0,0.2,0.1,0.2,0.4l0.2,2.2c0,0.2,0,0.3,0,0.4c0,0.2,0,0.4-0.2,0.4
					c-0.4,0-0.4-0.7-0.8-1.3c-1.2-1.9-2.9-2.9-4.8-2.9c-3.2,0-5.5,2.5-5.5,6.4c0,4.5,2.5,7.5,5.7,7.5c1.5,0,3-0.6,4.2-1.7
					c0.8-0.8,0.9-1.6,1.3-1.6c0.1,0,0.2,0.1,0.2,0.3c0,0,0,0.2-0.1,0.3l-0.4,1.7C78.7,59.2,76.9,59.8,74.7,59.8z"/>
				<path class="st12" d="M84.1,47.6c0-0.9,0-1.4-0.6-1.9c-0.5-0.4-1.2-0.2-1.2-0.6c0-0.3,0.1-0.3,0.4-0.3c0.2,0,1.4,0.1,3.9,0.1
					c3,0,4.7-0.2,5.1-0.2c0.3,0,0.4,0.1,0.4,0.4c0,0.1,0,0.2,0,0.3l-0.1,1.7c0,0.3-0.1,0.4-0.3,0.4c-0.2,0-0.3-0.1-0.3-0.4
					c0-0.1,0-0.2,0-0.2c0-1.1-0.8-1.4-2.6-1.4c-0.6,0-1.1,0-1.5,0c-1.2,0-1.6,0.1-1.6,0.8v4.3c0,0.7,0,0.8,0.7,0.8h1.7
					c1.1,0,1.7-0.1,2.1-0.7c0.3-0.4,0.2-1,0.5-1c0.1,0,0.3,0.1,0.3,0.5c0,0.3-0.1,0.9-0.1,1.9c0,0.8,0.1,1.3,0.1,1.4
					c0,0.3-0.1,0.4-0.3,0.4c-0.4,0-0.3-0.5-0.4-1c-0.3-0.7-0.9-0.8-2-0.8h-2c-0.5,0-0.6,0.1-0.6,0.7v4.3c0,1.1,0.4,1.3,1.7,1.3
					c1.9,0,3.5-0.5,4.3-1c0.8-0.5,0.9-1.2,1.2-1.2c0.1,0,0.2,0.1,0.2,0.4c0,0.3-0.2,1.1-0.7,1.6c-0.7,0.8-1.3,1.1-2.3,1.1
					c-0.7,0-1.9-0.1-3.7-0.1c-2.3,0-3.5,0.1-3.7,0.1c-0.1,0-0.2-0.1-0.2-0.3c0-0.4,0.5-0.3,1-0.8c0.5-0.5,0.5-1,0.5-1.8V47.6z"/>
			</g>
			<g>
				<path class="st12" d="M96.8,50.5c0-0.4,0-0.7,0-1.1c0-1.6-0.2-2.8-0.9-3.5c-0.7-0.7-1.5-0.5-1.5-0.9c0-0.2,0.1-0.3,0.4-0.3
					c0.2,0,0.5,0,0.9,0c0.2,0,0.4,0,0.6,0c0.3,0,0.4,0,0.7,0.3l10,11.2c0.1,0.1,0.2,0.2,0.2,0.2c0,0,0.1-0.1,0.1-0.4V49
					c0-1.8-0.1-2.8-0.8-3.2c-0.7-0.5-1.5-0.3-1.5-0.7c0-0.1,0.1-0.3,0.2-0.3c0.3,0,0.8,0.2,1.7,0.2c1,0,1.7-0.2,2-0.2
					c0.3,0,0.4,0.1,0.4,0.3c0,0.4-0.4,0.2-0.7,0.5c-0.4,0.3-0.6,1-0.6,2v11.4c0,0.1,0,0.1,0,0.2c0,0.4,0,0.5-0.3,0.5
					c-0.1,0-0.2-0.1-0.4-0.3L98,48.7c-0.1-0.1-0.2-0.2-0.2-0.2c-0.1,0-0.1,0.1-0.1,0.2l-0.2,7.4c0,0.3,0,0.6,0,0.8
					c0,1,0.1,1.5,0.8,1.8c0.5,0.3,1,0,1,0.4c0,0.3-0.1,0.3-0.5,0.3c-0.5,0-1.3-0.1-2.4-0.1c-0.6,0-1.1,0.1-1.3,0.1
					c-0.2,0-0.3-0.1-0.3-0.2c0-0.4,0.4-0.3,0.9-0.6c0.9-0.5,0.9-1.2,0.9-2.8L96.8,50.5z"/>
				<path class="st12" d="M116.3,46.3c0-0.4-0.1-0.5-0.6-0.5h-2.9c-0.8,0-1.2,0.4-1.6,1.2c-0.2,0.6-0.2,1-0.5,1
					c-0.2,0-0.2-0.1-0.2-0.3c0-0.1,0-0.2,0-0.4l0.2-2.1c0-0.4,0.2-0.4,0.7-0.4c0.5,0,1.3,0.1,2.5,0.1h6.6c1.3,0,2.2-0.1,2.7-0.1
					c0.3,0,0.4,0.1,0.4,0.4l0.1,1.9c0,0,0,0.1,0,0.1c0,0.3-0.1,0.4-0.3,0.4c-0.4,0-0.2-0.5-0.5-1c-0.3-0.5-0.9-0.9-1.7-0.9h-2.7
					c-0.5,0-0.7,0.1-0.7,0.5v10.6c0,1,0,1.4,0.8,1.8c0.7,0.3,1.2,0.1,1.2,0.5c0,0.2-0.1,0.3-0.5,0.3c-0.6,0-1.4-0.1-2.4-0.1
					c-1.2,0-2,0.2-2.3,0.2c-0.3,0-0.4-0.1-0.4-0.3c0-0.5,0.7-0.3,1.2-0.5c0.8-0.3,0.8-0.8,0.8-1.9V46.3z"/>
			</g>
			<g>
				<path class="st12" d="M127.4,47.6c0-0.9,0-1.4-0.6-1.9c-0.5-0.4-1.2-0.2-1.2-0.6c0-0.3,0.1-0.3,0.4-0.3c0.2,0,1.4,0.1,3.9,0.1
					c3,0,4.7-0.2,5.1-0.2c0.3,0,0.4,0.1,0.4,0.4c0,0.1,0,0.2,0,0.3l-0.1,1.7c0,0.3-0.1,0.4-0.3,0.4c-0.2,0-0.3-0.1-0.3-0.4
					c0-0.1,0-0.2,0-0.2c0-1.1-0.8-1.4-2.6-1.4c-0.6,0-1.1,0-1.5,0c-1.2,0-1.6,0.1-1.6,0.8v4.3c0,0.7,0,0.8,0.7,0.8h1.7
					c1.1,0,1.7-0.1,2.1-0.7c0.3-0.4,0.2-1,0.5-1c0.1,0,0.3,0.1,0.3,0.5c0,0.3-0.1,0.9-0.1,1.9c0,0.8,0.1,1.3,0.1,1.4
					c0,0.3-0.1,0.4-0.3,0.4c-0.4,0-0.3-0.5-0.4-1c-0.3-0.7-0.9-0.8-2-0.8h-2c-0.5,0-0.6,0.1-0.6,0.7v4.3c0,1.1,0.4,1.3,1.7,1.3
					c1.9,0,3.5-0.5,4.3-1c0.8-0.5,0.9-1.2,1.2-1.2c0.1,0,0.2,0.1,0.2,0.4c0,0.3-0.2,1.1-0.7,1.6c-0.7,0.8-1.3,1.1-2.3,1.1
					c-0.7,0-1.9-0.1-3.7-0.1c-2.3,0-3.5,0.1-3.7,0.1c-0.1,0-0.2-0.1-0.2-0.3c0-0.4,0.5-0.3,1-0.8c0.5-0.5,0.5-1,0.5-1.8V47.6z"/>
				<path class="st12" d="M140.1,47.6c0-0.9,0-1.4-0.6-1.9c-0.5-0.4-1.2-0.2-1.2-0.6c0-0.3,0.1-0.3,0.4-0.3c0.3,0,1,0.1,2,0.1
					c0.7,0,1.7-0.1,3.2-0.1c2.9,0,4.5,1.4,4.5,3.5c0,1.6-0.9,2.9-2.6,3.7l2.4,3.7c1,1.5,1.7,2.6,2.5,3.1c0.5,0.3,0.9,0.1,0.9,0.4
					c0,0.3-0.4,0.4-1.2,0.4c-1.7,0-2.5-1-3.5-2.7l-2.2-3.5c-0.5-0.8-1-0.9-2.1-0.9c-0.7,0-1,0.1-1,0.7v3.4c0,0.9,0.1,1.5,0.7,2
					c0.6,0.4,1.4,0.2,1.4,0.6c0,0.2-0.1,0.3-0.4,0.3c-0.4,0-1.2-0.1-2.4-0.1c-1.4,0-2.2,0.1-2.3,0.1c-0.2,0-0.3-0.1-0.3-0.3
					c0-0.4,0.6-0.3,1.2-0.8c0.5-0.5,0.5-1,0.5-1.8V47.6z M141.7,51.4c0,0.5,0.3,0.5,1.2,0.5c0.1,0,0.1,0,0.2,0
					c2.6,0,3.7-0.8,3.7-2.9c0-2.1-1.4-3.4-4-3.4c-0.8,0-1.1,0.1-1.1,0.8V51.4z"/>
			</g>
		</g>
		<g>
			<path class="st12" d="M16.6,28.4c-5.2,0-10.2-1.9-14.2-5.2v7.5c5.9,0,11.6-0.8,16.6-2.4C18.2,28.4,17.4,28.4,16.6,28.4z"/>
			<path class="st12" d="M2.5,2.9v19c3.8,3.6,8.9,5.6,14.2,5.6c3.1,0,6.3-0.7,9.1-2.1c3.4-1.9,6.3-4.3,8.4-7l2.1-2.8
				c-1.6-0.5-4-1.6-5.8-4.1c-3.1-4.2-5.9-4.2-11-2.7c-3.5,1-7,1.1-10,0.2c0.9,4,4.5,4.8,8.4,5.2l0.3,0l0.1,0.3
				c0.5,1.6,1.7,2.4,3.8,2.4l0,1c-3,0.1-4.2-1.4-4.7-2.8c-3.2-0.4-8.3-1.2-9-6.8L8.3,7.6L9,7.9C12,9,15.6,9,19.2,8
				c5.4-1.6,8.6-1.6,12,3.1c1.8,2.4,4.2,3.4,5.7,3.8l2-2.6c2.2-2.9,4.3-3.5,5.6-3.5c1.6,0,3.2,0.8,4.3,2.3c0.4,0.5,1.1,0.8,1.7,1.1
				l0.4,0.2c0,0,0.7,0.4,0.7,0.4L51,13.2c-0.1,0.1-0.2,0.1-0.3,0.2c-0.3,0.2-0.9,0.6-1.1,0.8l-0.8-0.6c0.2-0.2,0.5-0.5,0.8-0.7
				c-0.6-0.3-1.2-0.7-1.7-1.2c-1-1.3-2.3-2-3.6-1.9c-1.6,0-3.3,1.1-4.9,3.1L34.9,19c-2.1,2.8-5,5.2-8.5,7.1l0,0
				c-0.1,0-0.1,0.1-0.2,0.1c-1.7,0.9-3.5,1.8-5.5,2.5c-5.4,2-11.7,3-18.2,2.9v27.7h16.1c8-6.2,13.4-15.8,14.5-25.9l1,0.1
				c-1.1,10-6.3,19.4-13.9,25.8h38.8V2.9H2.5z M56.9,45.3c-2.1,0.2-5.9-1.6-8.1-3.7c-1.1-1-1.7-2.1-1.8-3.1
				c-1.7-0.5-3.3-2.3-3.1-5.1l1,0.1c-0.2,2.5,1.2,4,2.6,4.2l0.4,0.1l0,0.4c0,0.8,0.5,1.8,1.5,2.8c1.8,1.8,4.6,3,6.5,3.3
				c-2.1-3.4-1.9-7.4-1.6-11.6l0-0.3c0.2-1.9,0.7-6.5-3.7-8.2c-3.7-1.4-5.8-2.9-6.5-4.7l0.9-0.4c0.6,1.4,2.5,2.8,5.9,4.1
				c5.1,2,4.6,7.2,4.4,9.2c0,0,0,0.3,0,0.3c-0.5,5.2-0.3,8.8,1.9,11.7l0.5,0.7L56.9,45.3z"/>
		</g>
		<g>
			<path class="st12" d="M152.9,57.8c0-1.1,0.9-1.9,1.9-1.9c1,0,1.9,0.8,1.9,1.9c0,1.1-0.9,1.9-1.9,1.9
				C153.7,59.7,152.9,58.9,152.9,57.8z M154.8,59.4c0.8,0,1.5-0.7,1.5-1.6c0-0.9-0.7-1.6-1.5-1.6c-0.9,0-1.5,0.7-1.5,1.6
				C153.2,58.7,153.9,59.4,154.8,59.4z M154.4,58.9H154v-2.2h0.8c0.5,0,0.8,0.2,0.8,0.6c0,0.4-0.2,0.6-0.6,0.6l0.6,1h-0.4l-0.6-0.9
				h-0.4V58.9z M154.8,57.6c0.3,0,0.5,0,0.5-0.4c0-0.3-0.2-0.3-0.5-0.3h-0.4v0.7H154.8z"/>
		</g>
	</g>
</g>
</svg>
