<?xml version="1.0" encoding="utf-8"?>
<!-- Generator: Adobe Illustrator 19.2.1, SVG Export Plug-In . SVG Version: 6.00 Build 0)  -->
<svg version="1.1" xmlns="http://www.w3.org/2000/svg" xmlns:xlink="http://www.w3.org/1999/xlink" x="0px" y="0px"
	 viewBox="0 0 173.9 44.3" style="enable-background:new 0 0 173.9 44.3;" xml:space="preserve">
<style type="text/css">
	.st0{fill:#7C7C7C;}
	.st1{fill:#999999;}
	.st2{clip-path:url(#SVGID_2_);fill:none;stroke:#FFFFFF;}
	.st3{clip-path:url(#SVGID_4_);}
	.st4{clip-path:url(#SVGID_6_);}
	.st5{fill:#D3E0E2;}
	.st6{fill:#FF6D50;}
	.st7{opacity:0.1;clip-path:url(#SVGID_8_);}
	.st8{clip-path:url(#SVGID_10_);}
	.st9{fill:none;}
	.st10{fill:#425157;}
	.st11{fill:#FFFFFF;}
	.st12{fill:#231F20;}
	.st13{opacity:0.5;}
	.st14{fill:none;stroke:#425157;stroke-miterlimit:10;}
	.st15{clip-path:url(#SVGID_14_);}
	.st16{clip-path:url(#SVGID_16_);}
	.st17{fill:#1A1A1A;}
	.st18{fill:#5B6C74;}
	.st19{fill:#CCCCCC;}
	.st20{fill:#D46728;}
	.st21{fill:#211F1F;}
	.st22{fill:#808080;}
	.st23{fill:#3DA1D1;}
	.st24{fill:none;stroke:#E6E6E6;stroke-width:3;stroke-miterlimit:10;}
	.st25{fill:#4D4D4D;}
	.st26{fill:#333333;}
	.st27{fill:#EF6843;}
	.st28{fill:#99A8AD;}
	.st29{fill:none;stroke:#FF775D;stroke-miterlimit:10;}
	.st30{fill:#607075;}
	.st31{fill:#FF775D;}
	.st32{clip-path:url(#SVGID_18_);}
	.st33{clip-path:url(#SVGID_20_);}
	.st34{clip-path:url(#SVGID_22_);}
	.st35{clip-path:url(#SVGID_24_);}
	.st36{fill:#F2F2F2;}
	.st37{fill:#9AA5A8;}
	.st38{fill:none;stroke:#FFFFFF;stroke-miterlimit:10;}
	.st39{fill:#B3B3B3;}
	.st40{fill:#5D5D5D;}
	.st41{fill:none;stroke:#F97838;stroke-width:3;stroke-miterlimit:10;}
	.st42{fill:#F97838;}
	.st43{fill:none;stroke:#FF6D50;stroke-width:3;stroke-miterlimit:10;}
	.st44{clip-path:url(#SVGID_26_);}
	.st45{fill:none;stroke:#B3B3B3;stroke-width:0.728;stroke-miterlimit:10;}
	.st46{fill:#EBF1F2;}
	.st47{fill:none;stroke:#000000;stroke-width:3;stroke-linecap:round;stroke-linejoin:round;stroke-miterlimit:10;}
	.st48{fill:#79CEE3;}
	.st49{fill:#3C4C54;}
	.st50{fill:#EF672F;}
	.st51{fill:none;stroke:#94AAB2;stroke-width:6;stroke-miterlimit:10;}
	.st52{fill:none;stroke:#D3E0E2;stroke-miterlimit:10;}
	.st53{fill:none;stroke:#CCCCCC;stroke-width:6;stroke-miterlimit:10;}
	.st54{fill:#E6E6E6;}
	.st55{fill:none;stroke:#EF6843;stroke-width:3;stroke-miterlimit:10;}
	.st56{fill:#425157;stroke:#425157;stroke-width:3;stroke-miterlimit:10;}
	.st57{fill:none;stroke:#FF7E27;stroke-width:3;stroke-miterlimit:10;}
	.st58{fill:#FF7E27;}
	.st59{fill:#E2CE39;}
	.st60{clip-path:url(#SVGID_28_);}
	.st61{clip-path:url(#SVGID_30_);}
	.st62{opacity:0.38;}
	.st63{clip-path:url(#SVGID_32_);}
	.st64{clip-path:url(#SVGID_34_);}
	.st65{clip-path:url(#SVGID_36_);}
	.st66{clip-path:url(#SVGID_38_);}
	.st67{clip-path:url(#SVGID_40_);}
	.st68{clip-path:url(#SVGID_42_);}
	.st69{fill:#97A8AF;}
	.st70{clip-path:url(#SVGID_44_);}
	.st71{opacity:0.4;}
	.st72{clip-path:url(#SVGID_50_);}
	.st73{fill:#F9F9F9;}
	.st74{fill:none;stroke:#B3B3B3;stroke-miterlimit:10;}
	.st75{fill:none;stroke:#4D4D4D;stroke-width:1.709;stroke-linecap:round;stroke-miterlimit:10;}
	.st76{fill:none;stroke:#FF6D50;stroke-width:2;stroke-miterlimit:10;}
	.st77{clip-path:url(#SVGID_52_);}
	.st78{clip-path:url(#SVGID_54_);}
	.st79{clip-path:url(#SVGID_56_);}
	.st80{clip-path:url(#SVGID_58_);}
	.st81{clip-path:url(#SVGID_60_);}
	.st82{clip-path:url(#SVGID_62_);}
	.st83{fill:#2F4449;}
	.st84{opacity:0.15;clip-path:url(#SVGID_64_);}
	.st85{opacity:0.2;clip-path:url(#SVGID_64_);}
	.st86{clip-path:url(#SVGID_66_);}
	.st87{fill:none;stroke:#FFFFFF;stroke-width:1.1674;stroke-miterlimit:10;}
	.st88{fill:none;stroke:#EF6843;stroke-width:3.0525;stroke-miterlimit:10;}
	.st89{clip-path:url(#SVGID_68_);}
	.st90{clip-path:url(#SVGID_70_);}
	.st91{opacity:0.1;fill:#E73E30;}
	.st92{opacity:0.1;fill:#F39D97;}
	.st93{opacity:0.15;fill:#E73E30;}
	.st94{fill:#EC008C;}
	.st95{fill:none;stroke:#EC008C;stroke-width:5;stroke-miterlimit:10;}
	.st96{fill:none;stroke:#EC008C;stroke-width:3.6398;stroke-miterlimit:10;}
	.st97{fill:none;stroke:#EC008C;stroke-width:3.6567;stroke-miterlimit:10;}
	.st98{fill:#929DA0;}
	.st99{fill:#1384C7;}
	.st100{fill:#FF6A57;}
	.st101{fill:#787F7F;}
	.st102{clip-path:url(#SVGID_72_);}
	.st103{opacity:0.85;}
	.st104{fill:#050505;}
	.st105{fill:url(#SVGID_73_);}
	.st106{fill:url(#SVGID_74_);}
	.st107{fill:url(#SVGID_75_);}
	.st108{fill:url(#SVGID_76_);}
	.st109{fill:url(#SVGID_77_);}
	.st110{fill:url(#SVGID_78_);}
	.st111{fill:url(#SVGID_79_);}
	.st112{fill:url(#SVGID_80_);}
	.st113{fill:url(#SVGID_81_);}
	.st114{fill:url(#SVGID_82_);}
	.st115{fill:url(#SVGID_83_);}
	.st116{fill:url(#SVGID_84_);}
	.st117{fill:url(#SVGID_85_);}
	.st118{fill:url(#SVGID_86_);}
	.st119{fill:url(#SVGID_87_);}
	.st120{fill:url(#SVGID_88_);}
	.st121{fill:url(#SVGID_89_);}
	.st122{fill:url(#SVGID_90_);}
	.st123{fill:url(#SVGID_91_);}
	.st124{fill:url(#SVGID_92_);}
	.st125{fill:url(#SVGID_93_);}
	.st126{fill:url(#SVGID_94_);}
	.st127{fill:url(#SVGID_95_);}
	.st128{fill:url(#SVGID_96_);}
	.st129{fill:url(#SVGID_97_);}
	.st130{fill:#58595B;}
	.st131{fill-rule:evenodd;clip-rule:evenodd;fill:#231F20;}
	.st132{fill:#808285;}
	.st133{fill:url(#SVGID_98_);}
	.st134{fill:url(#SVGID_99_);}
	.st135{fill:url(#SVGID_100_);}
	.st136{fill:url(#SVGID_101_);}
	.st137{fill:url(#SVGID_102_);}
	.st138{fill:url(#SVGID_103_);}
	.st139{fill:url(#SVGID_104_);}
	.st140{fill:url(#SVGID_105_);}
	.st141{fill:url(#SVGID_106_);}
	.st142{fill:url(#SVGID_107_);}
	.st143{fill:url(#SVGID_108_);}
	.st144{fill:url(#SVGID_109_);}
	.st145{fill:url(#SVGID_110_);}
	.st146{fill:url(#SVGID_111_);}
	.st147{fill:url(#SVGID_112_);}
	.st148{fill:url(#SVGID_113_);}
	.st149{fill:url(#SVGID_114_);}
	.st150{fill:url(#SVGID_115_);}
	.st151{fill:url(#SVGID_116_);}
	.st152{fill:url(#SVGID_117_);}
	.st153{fill:url(#SVGID_118_);}
	.st154{fill:url(#SVGID_119_);}
	.st155{fill:url(#SVGID_120_);}
	.st156{fill:url(#SVGID_121_);}
	.st157{fill:url(#SVGID_122_);}
	.st158{fill:none;stroke:#E8563D;stroke-width:2;stroke-miterlimit:10;}
	.st159{fill:#E8563D;}
	.st160{clip-path:url(#SVGID_124_);}
</style>
<symbol  id="Search" viewBox="-7.1 -6.9 14.1 13.7">
	<path class="st0" d="M7-5.7l-4,4c0.6,0.9,0.9,1.9,0.9,3c0,3-2.5,5.5-5.5,5.5c-3,0-5.5-2.5-5.5-5.5c0-3,2.5-5.5,5.5-5.5
		c1.3,0,2.5,0.5,3.4,1.2l4-4L7-5.7z M-6,1.4c0,2.5,2,4.5,4.5,4.5c2.5,0,4.5-2,4.5-4.5c0-2.5-2-4.5-4.5-4.5C-4-3.1-6-1.1-6,1.4z"/>
</symbol>
<symbol  id="img_7_" viewBox="-129.7 -89.6 259.4 180">
	<rect x="-129.4" y="-89.2" class="st1" width="258.8" height="179.2"/>
	<g>
		<defs>
			<rect id="SVGID_1_" x="-129.4" y="-89.2" width="258.8" height="179.2"/>
		</defs>
		<clipPath id="SVGID_2_">
			<use xlink:href="#SVGID_1_"  style="overflow:visible;"/>
		</clipPath>
		<line class="st2" x1="-129.4" y1="90" x2="129.4" y2="-89.2"/>
		<line class="st2" x1="129.4" y1="90" x2="-129.4" y2="-89.2"/>
	</g>
</symbol>
<g id="bg">
</g>
<g id="Layer1">
	<g id="img_5_">
	</g>
	<g id="input">
	</g>
	<g id="go">
		<g id="go_1_">
		</g>
	</g>
	<g id="img_2_">
	</g>
	<g id="img">
	</g>
	<g id="img_3_">
	</g>
	<g id="img_1_">
	</g>
	<g id="button_default">
	</g>
	<g id="img_4_">
	</g>
	<g id="greek_text_1_">
	</g>
	<g id="greek_text">
	</g>
	<g id="go_2">
		<g id="go_4_">
		</g>
	</g>
	<g id="go_2_1_">
		<g id="go_5_">
		</g>
	</g>
	<g id="img_6_">
	</g>
	<g id="See_All">
	</g>
	<g id="go_2_2_">
		<g id="go_6_">
		</g>
	</g>
	<g id="See_All_1_">
	</g>
	<g id="FOOTER">
	</g>
	<g id="footer">
	</g>
	<g id="New_Symbol_1">
		<g id="footer_9_">
		</g>
	</g>
	<g id="New_Symbol">
	</g>
</g>
<g id="Layer_29">
</g>
<g id="Pop">
</g>
<g id="notes">
</g>
<g id="Grid">
</g>
<g id="design_notes">
</g>
<g id="Layer_31">
</g>
<g id="Layer_32">
</g>
<g id="Layer_33">
	<g>
		<path class="st11" d="M13,17.2c0,2.4-1.9,4.8-6.5,4.8c-2.8,0-5.3-1.1-6.5-2.5L2,17.6c0.7,0.9,2.7,1.9,4.6,1.9
			c2.2,0,3.7-0.9,3.7-2.2c0-3.3-9.6-1.2-9.6-7.3c0-2.4,2.3-4.7,6.2-4.7c2.3,0,4.5,0.8,5.6,2l-1.8,3.2L10,10.4
			c-0.9-0.3-0.9-1.3-0.9-1.3l0.1-0.9C8.7,8,7.5,7.9,6.9,7.9c-1.9,0-3.4,0.9-3.4,2C3.5,13.6,13,11.6,13,17.2z"/>
		<path class="st11" d="M31.8,13.8c0,0.4,0,0.8-0.1,1H18.2c0.4,2.8,2.8,4.9,5.7,4.9c1.9,0,4.2-0.9,5.5-2.2l1.6,2
			c-1.9,1.6-4.3,2.5-7,2.5c-4.7,0-8.5-3.7-8.5-8.3c0-4.6,3.8-8.3,8.5-8.3C28.6,5.5,31.8,9.2,31.8,13.8z M28.8,12.5
			c-0.4-2.7-2.3-4.7-5-4.7c-2.8,0-5.1,2-5.6,4.7H28.8z"/>
		<path class="st11" d="M38.9,19.4l1.3,0.3c0,0,1,0.3,1,1.2v0.7h-7.3v-0.7c0-1,1-1.2,1-1.2l1.3-0.3V8.1l-1.3-0.3c0,0-1-0.3-1-1.2
			V5.8h4.9l0.1,1.5c1.6-1.6,3.8-2.3,5.8-1.7v2.6c-1.2-0.3-5.8-0.9-5.8,3.6V19.4z"/>
		<path class="st11" d="M62.3,13.8c0,0.4,0,0.8-0.1,1H48.7c0.4,2.8,2.8,4.9,5.7,4.9c1.9,0,4.2-0.9,5.5-2.2l1.6,2
			c-1.9,1.6-4.3,2.5-7,2.5c-4.7,0-8.5-3.7-8.5-8.3c0-4.6,3.8-8.3,8.5-8.3C59.1,5.5,62.3,9.2,62.3,13.8z M59.3,12.5
			c-0.4-2.7-2.3-4.7-5-4.7c-2.8,0-5.1,2-5.6,4.7H59.3z"/>
		<path class="st11" d="M78.3,12.5c0-3-1.6-4.6-3.8-4.6c-2.6,0-5,1.7-5,5.3v6.1l1.3,0.3c0,0,1,0.3,1,1.2v0.7h-7.3v-0.7
			c0-1,1-1.2,1-1.2l1.3-0.3V8.1l-1.3-0.3c0,0-1-0.3-1-1.2V5.8h4.9l0.1,2.3c0.6-1.2,2.1-2.9,5.4-2.9c4.2,0,6.1,2.9,6.1,6.9v5.7
			c0,1.5,1.9,1.5,1.9,1.5l-0.4,2.3h-0.6c-2,0-3.6-1.5-3.6-3V12.5z"/>
		<path class="st11" d="M92.2,22.1c-4.3,0-7.7-3.7-7.7-8.3c0-4.6,3.4-8.3,7.7-8.3c2.4,0,4.5,1.2,5.8,2.9V2.3L96.7,2c0,0-1-0.3-1-1.2
			V0h5v17.8c0,1.5,1.8,1.6,1.8,1.6l-0.4,2.3h-0.5c-2,0-3.3-1.2-3.6-2.5C96.7,20.9,94.7,22.1,92.2,22.1z M87.3,13.8
			c0,3.2,2.4,5.8,5.4,5.8c3,0,5.4-2.6,5.4-5.8c0-3.2-2.4-5.8-5.4-5.8C89.7,8,87.3,10.6,87.3,13.8z"/>
		<path class="st27" d="M110.1,16.2l1.4,0.2c0,0,1,0.2,1.1,1.2l0.1,0.7l-5,0.4l-1.1-13.5L105.1,5c0,0-1-0.2-1.1-1.2L104,3.1l7.3-0.6
			l0.1,0.7c0.1,1-0.9,1.3-0.9,1.3L109.1,5L110.1,16.2z M110.5,21.1l-2.7,0.2L108,24l2.7-0.2L110.5,21.1z"/>
		<path class="st11" d="M119.9,23.6l0.8,0.3c0,0,1,0.3,1,1.2v0.7h-6.5v-0.7c0-1,1-1.2,1-1.2l1.1-0.3V8.1l-1.1-0.3c0,0-1-0.3-1-1.2
			V5.8h4.6l0.1,2.5c1.3-1.8,3.4-2.9,5.8-2.9c4.3,0,7.7,3.7,7.7,8.3c0,4.6-3.4,8.3-7.7,8.3c-2.4,0-4.5-1.2-5.8-2.9V23.6z M130.7,13.7
			c0-3.2-2.4-5.8-5.4-5.8c-3,0-5.4,2.6-5.4,5.8c0,3.2,2.4,5.8,5.4,5.8C128.3,19.5,130.7,16.9,130.7,13.7z"/>
		<path class="st11" d="M137.7,8.1l-1.3-0.3c0,0-1-0.3-1-1.2V5.8h5v13.5l1.3,0.3c0,0,1,0.3,1,1.2v0.7h-7.3v-0.7c0-1,1-1.2,1-1.2
			l1.3-0.3V8.1z M137.7,3.1h2.7V0.4h-2.7V3.1z"/>
		<path class="st11" d="M149.2,5.8h4.1V8h-4v8.8c0,1.6,0.7,3,2.2,3c0.8,0,1.7-0.4,2.1-0.7l1,2c-0.6,0.4-1.7,1-3.1,1
			c-3.1,0-4.9-2.1-4.9-5.3V8h-2.4V5.8h2.4l0.6-2.7c0,0,0.3-1,1.2-1h0.7V5.8z"/>
		<path class="st11" d="M167.5,5.8h6.5v0.7c0,1-1,1.2-1,1.2L172,8l-5.4,11.1c-2.3,4.7-5.1,8.2-7.7,9.8l-1.5-2.3
			c2.9-1.8,4-3.3,6.2-7.3l-5.4-11.3L157,7.8c0,0-1-0.3-1-1.2V5.8h6.5v0.7c0,1-1,1.2-1,1.2l-0.4,0.1l3.9,8.5l3.8-8.5l-0.4-0.1
			c0,0-1-0.3-1-1.2V5.8z"/>
		<path class="st11" d="M41.1,40.2l1.4,2.1c-1.8,1.3-4,2-6.4,2c-4.7,0-8.6-3.7-8.6-8.3s3.8-8.3,8.6-8.3c2.4,0,4.5,1,6.1,2.6
			l-1.8,3.5l-0.7-0.2c-0.9-0.3-0.9-1.3-0.9-1.3l0.2-1.4c-0.8-0.5-1.8-0.8-2.8-0.8c-3.2,0-5.8,2.6-5.8,5.9c0,3.3,2.6,5.9,5.8,5.9
			C37.8,41.9,39.7,41.3,41.1,40.2z"/>
		<path class="st11" d="M50.1,41.6l1.3,0.3c0,0,1,0.3,1,1.2v0.7h-7.3v-0.7c0-1,1-1.2,1-1.2l1.3-0.3V30.4l-1.3-0.3c0,0-1-0.3-1-1.2
			v-0.7h4.9l0.1,1.5c1.6-1.6,3.8-2.3,5.8-1.7v2.6c-1.2-0.3-5.8-0.9-5.8,3.6V41.6z"/>
		<path class="st11" d="M74.1,36c0,0.4,0,0.8-0.1,1H60.4c0.4,2.8,2.8,4.9,5.7,4.9c1.9,0,4.2-0.9,5.5-2.2l1.6,2
			c-1.9,1.6-4.3,2.5-7,2.5c-4.7,0-8.6-3.7-8.6-8.3s3.8-8.3,8.5-8.3C70.8,27.7,74.1,31.5,74.1,36z M71.1,34.8c-0.4-2.7-2.3-4.7-5-4.7
			c-2.8,0-5.1,2-5.6,4.7H71.1z"/>
		<path class="st11" d="M90.8,40.1c0,1.5,1.8,1.6,1.8,1.6l-0.4,2.3h-0.5c-1.9,0-3.3-1-3.6-2.3c0,0.2-1.4,2.6-5.1,2.6
			c-4.4,0-6.3-2.5-6.3-5.1c0-7.2,11.3-4.5,11.3-4.5c0-3.5-1.5-4.7-3.8-4.7c-1.8,0-3.7,0.9-4.6,1.9l-1.8-1.7c0,0,2-2.6,6.4-2.6
			c5,0,6.5,3,6.5,7.8V40.1z M88.1,37.1c0,0-8.5-1.9-8.5,2c0,1.3,1.2,2.8,3.7,2.8c3,0,4.7-2.6,4.7-4.4V37.1z"/>
		<path class="st11" d="M98.4,28.1h4.1v2.2h-4V39c0,1.6,0.7,3,2.2,3c0.8,0,1.7-0.4,2.1-0.7l1,2c-0.6,0.4-1.7,1-3.1,1
			c-3.1,0-4.9-2.1-4.9-5.3v-8.8h-2.4v-2.2h2.4l0.6-2.7c0,0,0.3-1,1.2-1h0.7V28.1z"/>
		<path class="st11" d="M108.3,30.4l-1.3-0.3c0,0-1-0.3-1-1.2v-0.7h5v13.5l1.3,0.3c0,0,1,0.3,1,1.2v0.7H106v-0.7c0-1,1-1.2,1-1.2
			l1.3-0.3V30.4z"/>
		<path class="st11" d="M115.2,28.1h6.5v0.7c0,1-1,1.2-1,1.2l-0.5,0.1l3.6,8l3.7-8l-0.4-0.1c0,0-1-0.3-1-1.2v-0.7h6.5v0.7
			c0,1-1,1.2-1,1.2l-1.1,0.3L124,43.9h-0.3l-6.5-13.6l-1-0.2c0,0-1-0.3-1-1.2V28.1z"/>
		<path class="st11" d="M150.1,36c0,0.4,0,0.8-0.1,1h-13.6c0.4,2.8,2.8,4.9,5.7,4.9c1.9,0,4.2-0.9,5.5-2.2l1.6,2
			c-1.9,1.6-4.3,2.5-7,2.5c-4.7,0-8.6-3.7-8.6-8.3s3.8-8.3,8.5-8.3C146.8,27.7,150.1,31.5,150.1,36z M147.1,34.8
			c-0.4-2.7-2.3-4.7-5-4.7c-2.8,0-5.1,2-5.6,4.7H147.1z"/>
	</g>
</g>
</svg>
